<svg xmlns="http://www.w3.org/2000/svg" viewBox="0 0 140 140"><defs><style>.cls-1{fill:#fff;}.cls-1,.cls-2,.cls-3{stroke:#000;stroke-width:4px;}.cls-1,.cls-3{stroke-miterlimit:10;}.cls-2,.cls-3{fill:none;}.cls-2{stroke-linecap:round;stroke-linejoin:round;}</style></defs><g id="dev"><circle class="cls-1" cx="70.46" cy="69.06" r="59.48"/><path class="cls-2" d="M106,117.2c-.8-10.52-7.38-8.49-7.38-8.49s-1.74-6.24-8.18-4"/><path class="cls-2" d="M38.83,117.2c.81-10.52,7.39-8.49,7.39-8.49s1.74-6.24,8.17-4"/><path class="cls-1" d="M63.25,93a59.52,59.52,0,0,0-5.58,8.87A61.55,61.55,0,0,0,54.2,110c-.5,1.55-.37,3,.4,3.79a2.06,2.06,0,0,0,.89.48,2.38,2.38,0,0,0,2-.72c1-.91,2.33-2.18,3.6-3.3A25.09,25.09,0,0,1,70.46,105Q66.86,99,63.25,93Z"/><path class="cls-1" d="M82,93a59.49,59.49,0,0,1,5.59,8.87A61.55,61.55,0,0,1,91.09,110c.5,1.55.37,3-.41,3.79a2.06,2.06,0,0,1-.88.48,2.4,2.4,0,0,1-2-.72c-1-.91-2.32-2.18-3.59-3.3A25.09,25.09,0,0,0,74.83,105Z"/><path class="cls-1" d="M85.71,73.31c.19,15-6.69,36.13-13.07,36.13-5.77,0-13.25-21.17-13.06-36.13.15-12.43,7.29-30.57,13.06-30.57S85.55,60.88,85.71,73.31Z"/><line class="cls-1" x1="64.99" y1="51.35" x2="80.29" y2="51.35"/><line class="cls-1" x1="59.95" y1="84.29" x2="85.38" y2="84.29"/><circle class="cls-3" cx="72.64" cy="69.06" r="5.72"/><polyline class="cls-2" points="2.99 87.1 16.03 92.54 21.47 79.5"/><polyline class="cls-2" points="137.37 50.28 124.33 44.83 118.89 57.87"/></g><g id="leader"><line class="cls-2" x1="106.98" y1="68.81" x2="106.98" y2="72.69"/><line class="cls-2" x1="106.98" y1="79.48" x2="106.98" y2="83.36"/><line class="cls-2" x1="99.71" y1="76.14" x2="103.59" y2="76.14"/><line class="cls-2" x1="110.38" y1="76.14" x2="114.26" y2="76.14"/><line class="cls-2" x1="41.4" y1="39.57" x2="41.4" y2="43.45"/><line class="cls-2" x1="41.4" y1="50.24" x2="41.4" y2="54.12"/><line class="cls-2" x1="34.13" y1="46.9" x2="38" y2="46.9"/><line class="cls-2" x1="44.8" y1="46.9" x2="48.67" y2="46.9"/></g></svg>