<svg xmlns="http://www.w3.org/2000/svg" fill="currentColor" viewBox="0 0 115.49 130.98">
  <defs>
    <style>
      .cls-1{fill:#fff}
    </style>
  </defs>
  <g>
    <path d="M113.49 114.37a1.34 1.34 0 01-1.25 1.42H74.12a1.34 1.34 0 01-1.25-1.42V96.63c0-9.58 6.79-17.36 15.16-17.36h10.32c8.37 0 15.14 7.78 15.14 17.36z" class="cls-1"/>
    <path d="M112.24 117.79H74.12a3.34 3.34 0 01-3.25-3.42V96.63c0-10.63 7.7-19.36 17.13-19.36h10.35c9.45 0 17.14 8.69 17.14 19.36v17.74a3.34 3.34 0 01-3.25 3.42zm-37.37-4h36.62V96.63c0-8.46-5.89-15.36-13.14-15.36H88c-7.25 0-13.16 6.9-13.16 15.36z"/>
    <path d="M104.21 95.33v19.88" class="cls-1"/>
    <path d="M104.21 117.21a2 2 0 01-2-2V95.33a2 2 0 014 0v19.88a2 2 0 01-2 2z"/>
    <circle cx="93.37" cy="68.81" r="10.05" class="cls-1"/>
    <path d="M93.37 80.86a12 12 0 1112-12 12.06 12.06 0 01-12 12zm0-20.09a8 8 0 108 8 8.06 8.06 0 00-8-8z"/>
    <path d="M42.62 114.37a1.35 1.35 0 01-1.26 1.42H3.24A1.34 1.34 0 012 114.37V96.63c0-9.58 6.79-17.36 15.16-17.36h10.32c8.37 0 15.14 7.78 15.14 17.36z" class="cls-1"/>
    <path d="M41.36 117.79H3.24A3.33 3.33 0 010 114.37V96.63C0 86 7.7 77.27 17.16 77.27h10.32c9.45 0 17.14 8.69 17.14 19.36v17.74a3.34 3.34 0 01-3.26 3.42zm-37.36-4h36.62V96.63c0-8.46-5.9-15.36-13.14-15.36H17.16C9.9 81.27 4 88.17 4 96.63z"/>
    <path d="M11.08 95.33v19.88" class="cls-1"/>
    <path d="M11.08 117.21a2 2 0 01-2-2V95.33a2 2 0 014 0v19.88a2 2 0 01-2 2z"/>
    <circle cx="22.49" cy="68.81" r="10.05" class="cls-1"/>
    <path d="M22.49 80.86a12 12 0 1112.05-12 12.06 12.06 0 01-12.05 12zm0-20.09a8 8 0 108.05 8 8.06 8.06 0 00-8.05-8z"/>
    <path d="M85 127.07a1.81 1.81 0 01-1.65 1.93H32.13a1.8 1.8 0 01-1.67-1.91v-23.85c0-12.88 9.12-23.32 20.36-23.32h13.87C75.93 79.92 85 90.36 85 103.24z" class="cls-1"/>
    <path d="M83.35 131H32.13a3.8 3.8 0 01-3.67-3.91v-23.85c0-14 10-25.32 22.36-25.32h13.87C77 77.92 87 89.28 87 103.24v23.83a3.8 3.8 0 01-3.65 3.93zm-50.89-4H83v-23.76c0-11.76-8.23-21.32-18.34-21.32H50.82c-10.12 0-18.36 9.56-18.36 21.32z"/>
    <path d="M42.66 101.49v26.71" class="cls-1"/>
    <path d="M42.66 130.2a2 2 0 01-2-2v-26.71a2 2 0 114 0v26.71a2 2 0 01-2 2z"/>
    <path d="M72.57 101.49v26.71" class="cls-1"/>
    <path d="M72.57 130.2a2 2 0 01-2-2v-26.71a2 2 0 014 0v26.71a2 2 0 01-2 2z"/>
    <circle cx="57.99" cy="65.86" r="13.5" class="cls-1"/>
    <path d="M58 81.36a15.5 15.5 0 1115.5-15.5A15.51 15.51 0 0158 81.36zm0-27a11.5 11.5 0 1011.5 11.5A11.51 11.51 0 0058 54.36z"/>
    <path d="M57.88 87.79c-5.16 0-9.91-2.5-12.1-6.37l3.48-2c1.5 2.63 4.88 4.34 8.62 4.34 4.09 0 7.68-2 8.93-5l3.69 1.54c-1.86 4.49-6.94 7.49-12.62 7.49z"/>
    <path d="M45.22 41.24h25.06l3.39-17.95-10.69 5.59-5.24-8.99-5.23 8.99-10.7-5.59 3.41 17.95z" class="cls-1"/>
    <path d="M70.27 43.24H45.21a2 2 0 01-2-1.63l-3.4-17.95a2 2 0 01.77-2 2 2 0 012.12-.16l9 4.71 4.3-7.33a2 2 0 011.73-1 2 2 0 011.72 1l4.28 7.35 9-4.71a2 2 0 012.12.16 2 2 0 01.77 2l-3.4 18a2 2 0 01-1.95 1.56zm-23.4-4h21.75L70.94 27l-7 3.68a2 2 0 01-2.66-.77l-3.5-6-3.51 6a2 2 0 01-2.66.77l-7-3.68zM46.63 14a2 2 0 01-1.63-.91l-2.58-3.74a2 2 0 013.3-2.26l2.56 3.74a2 2 0 01-.52 2.78 2 2 0 01-1.13.39zM68.86 14.07a2 2 0 01-1.13-.35 2 2 0 01-.52-2.78l2.56-3.74a2 2 0 013.3 2.26l-2.56 3.74a2 2 0 01-1.65.87zM57.75 12.19a2 2 0 01-2-2V2a2 2 0 014 0v8.19a2 2 0 01-2 2z"/>
  </g>
</svg>
