<svg xmlns="http://www.w3.org/2000/svg" viewBox="0 0 140 140"><defs><style>.cls-1,.cls-2,.cls-3{fill:#fff;stroke:#000;stroke-width:4px;}.cls-1,.cls-3{stroke-miterlimit:10;}.cls-2,.cls-3{stroke-linecap:round;}.cls-2{stroke-linejoin:round;}</style></defs><g id="dev"><circle class="cls-1" cx="70.59" cy="72.29" r="59.48"/></g><g id="leader"><path class="cls-2" d="M50.67,74.73H40.61A19.56,19.56,0,0,0,21.05,94.29V103s12.68,27.55,47.8,28.3V92.91A18.18,18.18,0,0,0,50.67,74.73Z"/><line class="cls-3" x1="56.17" y1="101.77" x2="56.17" y2="128.59"/><circle class="cls-1" cx="44.95" cy="57.86" r="14.34"/><path class="cls-1" d="M56.17,75.71c-1.6,3.84-6.12,6.61-11.45,6.61-4.88,0-9.09-2.33-11-5.69"/><circle class="cls-1" cx="80.12" cy="40.69" r="11.63"/><circle class="cls-1" cx="102.74" cy="82.32" r="17.42"/><line class="cls-2" x1="85.4" y1="89.15" x2="68.85" y2="91.9"/><line class="cls-1" x1="94.8" y1="67.46" x2="86.59" y2="52.08"/></g></svg>