<svg xmlns="http://www.w3.org/2000/svg" fill="currentColor" viewBox="0 0 122.5 147.15">
  <defs>
    <style>
      .cls-1{fill:#fff}
    </style>
  </defs>
  <g>
    <path d="M25.75 111.4a104.14 104.14 0 01-7.55 11.29A106.4 106.4 0 017.75 134.4l-6-6a74.48 74.48 0 008.6-9.31 73.94 73.94 0 006.4-9.69" class="cls-1"/>
    <path d="M7.75 136.15a1.72 1.72 0 01-1.24-.52l-6-6a1.74 1.74 0 01.06-2.52A73.78 73.78 0 009 118a72.65 72.65 0 006.25-9.46 1.75 1.75 0 113.06 1.7 76.85 76.85 0 01-6.55 9.91 76 76 0 01-7.46 8.28l3.49 3.49a102.87 102.87 0 009-10.31 102.71 102.71 0 007.43-11.1 1.75 1.75 0 013 1.75 107.25 107.25 0 01-7.68 11.48A108.07 108.07 0 019 135.66a1.79 1.79 0 01-1.25.49z"/>
    <path d="M95.75 75.4a70 70 0 008 28h-11a52.81 52.81 0 01-4-12 51.9 51.9 0 01-1-8z" class="cls-1"/>
    <path d="M103.75 105.15h-11a1.75 1.75 0 01-1.58-1A54.59 54.59 0 0186 83.48a1.76 1.76 0 01.51-1.32l8-8a1.76 1.76 0 013 1.12 68.4 68.4 0 002.92 15.6 69.16 69.16 0 004.88 11.7 1.75 1.75 0 01-1.55 2.57zm-9.88-3.5h7a71.71 71.71 0 01-3.83-9.73 72.83 72.83 0 01-2.72-12.66l-4.78 4.78a51.17 51.17 0 004.33 17.57z"/>
    <path d="M72.75 52.4q-2 6.49-4 13l-12 8 4 7 16-10 3-6-2 4c.67 2 1.33 4 2 6l-8 10-3 19h11l2-15c12.86-9.61 14-13 14-13a16.34 16.34 0 00.37-5.64 18.49 18.49 0 00-3.37-8.36 69.51 69.51 0 00-11-13" class="cls-1"/>
    <path d="M79.75 105.15h-11a1.76 1.76 0 01-1.73-2l3-19a1.77 1.77 0 01.36-.83l7.41-9.25-.62-1.85-15.49 9.66a1.76 1.76 0 01-1.36.21 1.74 1.74 0 01-1.09-.82l-4-7a1.75 1.75 0 01.55-2.33l11.48-7.65 3.82-12.41a1.75 1.75 0 113.34 1l-4 13a1.7 1.7 0 01-.7.94L59.08 74l2.29 4 14-8.78 2.78-5.55a1.75 1.75 0 013.31.78 1.81 1.81 0 01-.18.78l-1.68 3.35 1.77 5.31a1.75 1.75 0 01-.29 1.65l-7.71 9.64-2.57 16.47h7.42L80 88.17a1.75 1.75 0 01.7-1.17c11-8.19 13.09-11.62 13.39-12.17a14.6 14.6 0 00.29-4.83 16.78 16.78 0 00-3.1-7.61 68 68 0 00-10.73-12.72A1.75 1.75 0 1183 47.12a72 72 0 0111.22 13.33 20.13 20.13 0 013.64 9.12 18 18 0 01-.41 6.23.75.75 0 010 .16c-.22.64-1.9 4.27-14 13.4l-1.91 14.27a1.74 1.74 0 01-1.79 1.52z"/>
    <path d="M20.75 85.4Q17.86 92.33 15 99.27a8.06 8.06 0 006.71 11.12l11.07 1v11.5h9v-15.84a3.18 3.18 0 00-2.6-3.13l-6.06-1.1a2.06 2.06 0 01-1.58-2.69c.41-1.24 1.62-3.67 2-4.92l-3.8.19 20-1q5.51-7 11-14l-4-7-11 11h-14" class="cls-1"/>
    <path d="M41.75 124.65h-9A1.75 1.75 0 0131 122.9V113l-9.48-.87a9.8 9.8 0 01-8.16-13.54l5.78-13.87a1.75 1.75 0 013.23 1.35l-5.78 13.87a6.31 6.31 0 005.25 8.71l11.07 1a1.76 1.76 0 011.59 1.75v9.75H40v-14.1a1.42 1.42 0 00-1.17-1.4l-6-1.1a3.81 3.81 0 01-2.93-5c.22-.67.6-1.55 1-2.48l-1 .05a1.75 1.75 0 01-.18-3.5l19.21-1 9.78-12.45-2.28-4L47 85.63a1.77 1.77 0 01-1.24.52h-14a1.75 1.75 0 010-3.5H45l10.51-10.49a1.75 1.75 0 012.76.37l4 7a1.76 1.76 0 01-.14 2l-11 14a1.79 1.79 0 01-1.29.67l-15.07.75c-.19.46-.41 1-.64 1.48-.39.87-.78 1.76-1 2.31a.3.3 0 00.24.41l6.05 1.1a4.93 4.93 0 014 4.85v15.8a1.75 1.75 0 01-1.67 1.75z"/>
    <circle cx="73.75" cy="42.4" r="9" class="cls-1"/>
    <path d="M73.75 53.15A10.75 10.75 0 1184.5 42.4a10.76 10.76 0 01-10.75 10.75zm0-18A7.25 7.25 0 1081 42.4a7.26 7.26 0 00-7.25-7.25z"/>
    <circle cx="26.75" cy="76.4" r="9" class="cls-1"/>
    <path d="M26.75 87.15A10.75 10.75 0 1137.5 76.4a10.76 10.76 0 01-10.75 10.75zm0-18A7.25 7.25 0 1034 76.4a7.26 7.26 0 00-7.25-7.25zM13.75 147.15a1.7 1.7 0 01-.92-.27 1.75 1.75 0 01-.57-2.41l14-22.5a1.77 1.77 0 011.49-.82h20.93l9.51-18.55a1.74 1.74 0 011.56-.95h61a1.75 1.75 0 010 3.5H60.82l-9.51 18.55a1.76 1.76 0 01-1.56 1h-21l-13.51 21.62a1.78 1.78 0 01-1.49.83z"/>
    <path d="M30.54 32.4a12.49 12.49 0 01-4-9.9 12.57 12.57 0 0125.11.76 12.53 12.53 0 01-4 9.15 5 5 0 00-1.56 3.67v1.82a3.89 3.89 0 01-3.89 3.92H36a3.89 3.89 0 01-3.9-3.92v-1.83a5 5 0 00-1.56-3.67z" class="cls-1"/>
    <path d="M42.25 43.57H36a5.65 5.65 0 01-5.64-5.68v-1.82a3.27 3.27 0 00-1-2.39 14.32 14.32 0 1119.55 0 3.23 3.23 0 00-1 2.39v1.8a5.65 5.65 0 01-5.64 5.69zM31.73 31.13a6.73 6.73 0 012.12 4.95v1.83a2.05 2.05 0 00.62 1.52 2.13 2.13 0 001.52.64h6.26a2.15 2.15 0 002.14-2.16v-1.83a6.72 6.72 0 012.11-4.94 10.81 10.81 0 00-7.68-18.7 10.8 10.8 0 00-7.09 18.69zM43 49.31h-7.75a1.75 1.75 0 010-3.5H43a1.75 1.75 0 010 3.5zM40.63 55.05h-3.11a1.75 1.75 0 110-3.5h3.11a1.75 1.75 0 110 3.5zM39.12 6.61a1.75 1.75 0 01-1.75-1.75V1.75a1.75 1.75 0 013.5 0v3.11a1.75 1.75 0 01-1.75 1.75zM60.92 22.13h-3.11a1.75 1.75 0 010-3.5h3.11a1.75 1.75 0 010 3.5zM20.77 22.13h-3.12a1.75 1.75 0 110-3.5h3.12a1.75 1.75 0 010 3.5z"/>
    <path d="M52.33 11.83a1.76 1.76 0 01-1.24-3l2.2-2.2a1.75 1.75 0 012.48 2.47l-2.2 2.2a1.78 1.78 0 01-1.24.53zM26.18 11.83a1.76 1.76 0 01-1.24-.52l-2.2-2.2a1.75 1.75 0 012.47-2.47l2.2 2.2a1.76 1.76 0 01-1.23 3zM33.45 24.85a1.75 1.75 0 01-1.75-1.75 7.39 7.39 0 017.38-7.38 1.75 1.75 0 110 3.5 3.88 3.88 0 00-3.88 3.88 1.75 1.75 0 01-1.75 1.75z"/>
  </g>
</svg>
