<svg xmlns="http://www.w3.org/2000/svg" fill="currentColor" viewBox="0 0 104.75 112">
  <defs>
    <style>
      .cls-1{fill:#fff}
    </style>
  </defs>
  <g>
    <rect width="99" height="99" x="5.75" y="13" rx="10"/>
    <rect width="99" height="99" x="1.75" y="9" class="cls-1" rx="10"/>
    <path d="M90.75 109.75h-79A11.76 11.76 0 010 98V19A11.76 11.76 0 0111.75 7.25h79A11.76 11.76 0 01102.5 19v79a11.76 11.76 0 01-11.75 11.75zm-79-99A8.26 8.26 0 003.5 19v79a8.26 8.26 0 008.25 8.25h79A8.26 8.26 0 0099 98V19a8.26 8.26 0 00-8.25-8.25z"/>
    <path d="M90.75 99H24.49L1.75 76.26V19a10 10 0 0110-10h79a10 10 0 0110 10v70a10 10 0 01-10 10z" class="cls-1"/>
    <path d="M90.75 100.75H24.49a1.74 1.74 0 01-1.24-.51L.51 77.5A1.74 1.74 0 010 76.26V19A11.76 11.76 0 0111.75 7.25h79A11.76 11.76 0 01102.5 19v70a11.76 11.76 0 01-11.75 11.75zm-65.54-3.5h65.54A8.26 8.26 0 0099 89V19a8.26 8.26 0 00-8.25-8.25h-79A8.26 8.26 0 003.5 19v56.54z"/>
    <path d="M100.75 27h-99V17a8 8 0 018-8h83a8 8 0 018 8zM24.75 100.75A1.75 1.75 0 0123 99V78.75H1.75a1.75 1.75 0 010-3.5h23A1.75 1.75 0 0126.5 77v22a1.75 1.75 0 01-1.75 1.75z"/>
    <path d="M51.5 40.34l5.84 11.82 13.04 1.89-9.44 9.2 2.23 12.99-11.67-6.13-11.66 6.13 2.23-12.99-9.44-9.2 13.04-1.89 5.83-11.82z" class="cls-1"/>
    <path d="M63.17 78a1.84 1.84 0 01-.82-.2L51.5 72.09l-10.85 5.7A1.75 1.75 0 0138.11 76l2.08-12.09-8.78-8.55a1.75 1.75 0 011-3l12.13-1.76 5.42-11a1.76 1.76 0 011.57-1 1.74 1.74 0 011.57 1l5.43 11 12.13 1.76a1.76 1.76 0 011 3l-8.78 8.55L64.89 76a1.74 1.74 0 01-1.72 2zM51.5 68.36a1.84 1.84 0 01.82.2L60.84 73l-1.63-9.49a1.78 1.78 0 01.51-1.51l6.9-6.72-9.54-1.39a1.72 1.72 0 01-1.31-1L51.5 44.3l-4.26 8.63a1.75 1.75 0 01-1.32 1l-9.53 1.39 6.9 6.68a1.75 1.75 0 01.5 1.55L42.16 73l8.53-4.48a1.76 1.76 0 01.81-.16z"/>
    <circle cx="78.75" cy="17" r="6" class="cls-1"/>
    <circle cx="51.75" cy="17" r="6" class="cls-1"/>
    <circle cx="24.75" cy="17" r="6" class="cls-1"/>
    <rect width="6" height="20" x="48.75" rx="3"/>
    <rect width="6" height="20" x="21.75" rx="3"/>
    <rect width="6" height="20" x="75.75" rx="3"/>
    <path d="M91.75 46.75h-9a1.75 1.75 0 010-3.5h9a1.75 1.75 0 010 3.5zM91.75 36.75h-18a1.75 1.75 0 010-3.5h18a1.75 1.75 0 010 3.5z"/>
  </g>
</svg>
