<svg xmlns="http://www.w3.org/2000/svg" fill="currentColor" viewBox="0 0 188.92 151.21">
  <defs>
    <style>
      .cls-1{fill:#fff}
    </style>
  </defs>
  <g>
    <path d="M149.36 5.14H9.86C4.43 5.14 0 10.27 0 16.57v103.74c0 6.31 4.43 11.44 9.86 11.44h139.5c5.44 0 9.86-5.13 9.86-11.44V16.57c0-6.3-4.42-11.43-9.86-11.43z"/>
    <rect width="156.93" height="124.63" x="5.07" y="1.75" class="cls-1" rx="10"/>
    <path d="M152 128.13H15.07a11.76 11.76 0 01-11.75-11.75V11.75A11.76 11.76 0 0115.07 0H152a11.76 11.76 0 0111.75 11.75v104.63A11.76 11.76 0 01152 128.13zM15.07 3.5a8.26 8.26 0 00-8.25 8.25v104.63a8.26 8.26 0 008.25 8.25H152a8.26 8.26 0 008.25-8.25V11.75A8.26 8.26 0 00152 3.5z"/>
    <path d="M14.83 1.75h137.4a9.76 9.76 0 019.77 9.76v6.85H5.07v-6.85a9.76 9.76 0 019.76-9.76z"/>
    <path d="M148.76 12.21h-8.31a1.75 1.75 0 010-3.5h8.31a1.75 1.75 0 010 3.5z" class="cls-1"/>
    <circle cx="18.51" cy="10.06" r="2.77" class="cls-1"/>
    <circle cx="30.98" cy="10.06" r="2.77" class="cls-1"/>
    <circle cx="43.45" cy="10.06" r="2.77" class="cls-1"/>
    <path d="M75.35 63.52H17.47a1.75 1.75 0 01-1.75-1.75V24.85a1.75 1.75 0 011.75-1.75h57.88a1.75 1.75 0 011.75 1.75v36.92a1.75 1.75 0 01-1.75 1.75zM19.22 60H73.6V26.6H19.22zM111.28 115.21a6.56 6.56 0 01-6.56-6.56V91.44a1.75 1.75 0 013.5 0v17.21a3.06 3.06 0 003.06 3.06c1.81 0 3.53-1.48 3.53-3.06v-7.32a1.75 1.75 0 113.5 0c0 1.7 1 3.53 3.06 3.53a3.53 3.53 0 003.52-3.53v-9.89a1.75 1.75 0 113.5 0v9.89a7 7 0 01-7 7 6.37 6.37 0 01-3.06-.76v1.05c-.02 3.53-3.33 6.59-7.05 6.59zM138.91 113a1.75 1.75 0 01-1.75-1.75v-7.45a4.62 4.62 0 014.62-4.61h42.52a1.12 1.12 0 001.12-1.12V82.44a1.12 1.12 0 00-1.12-1.12h-7.94a1.75 1.75 0 010-3.5h7.94a4.63 4.63 0 014.62 4.62v15.63a4.62 4.62 0 01-4.62 4.62h-42.52a1.12 1.12 0 00-1.12 1.11v7.42a1.75 1.75 0 01-1.75 1.78z"/>
    <path d="M144.94 113.12c.56.56 1 2.21 1.33 4.5a112.07 112.07 0 01-.08 25.83c-.32 2-.74 3.47-1.25 4a6.93 6.93 0 01-9.82 0c-.52-.51-.93-2-1.25-4a112.7 112.7 0 01-.15-25.33c.34-2.55.8-4.4 1.4-5a7 7 0 019.82 0z" class="cls-1"/>
    <path d="M140 151.21a8.63 8.63 0 01-6.15-2.54c-.56-.56-1.21-1.59-1.74-4.95a114.63 114.63 0 01-.11-25.82c.54-4.18 1.26-5.39 1.89-6a8.71 8.71 0 0112.3 0c.6.59 1.28 1.71 1.82 5.48a112.66 112.66 0 01-.08 26.35c-.53 3.36-1.18 4.39-1.74 4.95a8.69 8.69 0 01-6.19 2.53zm-3.68-36.85a12.66 12.66 0 00-.89 4 109.88 109.88 0 00.14 24.82 8.94 8.94 0 00.79 3.07 5.22 5.22 0 007.32 0 9.47 9.47 0 00.76-3 109.8 109.8 0 00.07-25.31 10.31 10.31 0 00-.86-3.54 5.2 5.2 0 00-7.32 0z"/>
    <rect width="74.37" height="21.63" x="101.46" y="68.5" class="cls-1" rx="5.01"/>
    <path d="M170.82 91.87h-64.35a6.76 6.76 0 01-6.76-6.76v-11.6a6.76 6.76 0 016.76-6.76h64.35a6.76 6.76 0 016.76 6.76v11.6a6.76 6.76 0 01-6.76 6.76zm-64.35-21.62a3.26 3.26 0 00-3.26 3.26v11.6a3.26 3.26 0 003.26 3.26h64.35a3.26 3.26 0 003.26-3.26v-11.6a3.26 3.26 0 00-3.26-3.26zM63.71 82.54h-45a1.75 1.75 0 110-3.5h45a1.75 1.75 0 010 3.5zM45.71 91.54h-27a1.75 1.75 0 110-3.5h27a1.75 1.75 0 010 3.5zM135.71 38.63h-45a1.75 1.75 0 010-3.5h45a1.75 1.75 0 010 3.5zM117.71 47.63h-27a1.75 1.75 0 010-3.5h27a1.75 1.75 0 010 3.5zM27.71 109.54h-9a1.75 1.75 0 110-3.5h9a1.75 1.75 0 010 3.5zM31.73 63.16a1.73 1.73 0 01-1.23-.51 1.74 1.74 0 010-2.48l25-25a1.82 1.82 0 012.48 0l18 18a1.75 1.75 0 11-2.48 2.48L56.72 38.89 33 62.65a1.75 1.75 0 01-1.27.51z"/>
    <path d="M18 57.36a1.76 1.76 0 01-1.24-3l12.61-12.65a1.8 1.8 0 012.48 0l9.39 9.4a1.73 1.73 0 010 2.47 1.75 1.75 0 01-2.47 0l-8.16-8.16-11.42 11.42a1.72 1.72 0 01-1.19.52zM40.8 42.82a6.5 6.5 0 116.49-6.5 6.51 6.51 0 01-6.49 6.5zm0-9.5a3 3 0 103 3 3 3 0 00-3-3z"/>
  </g>
</svg>
