<svg xmlns="http://www.w3.org/2000/svg" fill="currentColor" viewBox="0 0 173.37 164.81">
  <defs>
    <style>
      .cls-1{fill:#fff}
    </style>
  </defs>
  <g>
    <path d="M158.23 38.19H10.45C4.69 38.19 0 43.32 0 49.63v103.74c0 6.31 4.69 11.44 10.45 11.44h147.78c5.76 0 10.45-5.13 10.45-11.44V49.63c0-6.31-4.68-11.44-10.45-11.44z"/>
    <rect width="166.25" height="124.63" x="5.37" y="34.81" class="cls-1" rx="10"/>
    <path d="M161.62 161.19H15.37a11.76 11.76 0 01-11.75-11.75V44.81a11.76 11.76 0 0111.75-11.75h146.25a11.76 11.76 0 0111.75 11.75v104.63a11.76 11.76 0 01-11.75 11.75zM15.37 36.56a8.26 8.26 0 00-8.25 8.25v104.63a8.26 8.26 0 008.25 8.25h146.25a8.26 8.26 0 008.25-8.25V44.81a8.26 8.26 0 00-8.25-8.25z"/>
    <path d="M15.13 34.81h146.73a9.76 9.76 0 019.76 9.76v6.85H5.37v-6.85a9.76 9.76 0 019.76-9.76z"/>
    <path d="M159.17 45.67h-7.91a1.75 1.75 0 010-3.5h7.91a1.75 1.75 0 010 3.5z" class="cls-1"/>
    <circle cx="17.84" cy="43.12" r="2.77" class="cls-1"/>
    <circle cx="30.31" cy="43.12" r="2.77" class="cls-1"/>
    <circle cx="42.78" cy="43.12" r="2.77" class="cls-1"/>
    <path d="M95.61 107.09v22" class="cls-1"/>
    <path d="M95.61 130.84a1.75 1.75 0 01-1.75-1.75v-22a1.75 1.75 0 013.5 0v22a1.76 1.76 0 01-1.75 1.75z"/>
    <path d="M81.61 129.09v-22" class="cls-1"/>
    <path d="M81.61 130.84a1.75 1.75 0 01-1.75-1.75v-22a1.75 1.75 0 013.5 0v22a1.76 1.76 0 01-1.75 1.75z"/>
    <path d="M79.62 93.09h18v14h-18z" class="cls-1"/>
    <path d="M97.62 108.84h-18a1.75 1.75 0 01-1.75-1.75v-14a1.75 1.75 0 011.75-1.75h18a1.75 1.75 0 011.75 1.75v14a1.75 1.75 0 01-1.75 1.75zm-16.25-3.5h14.5v-10.5h-14.5z"/>
    <path d="M74.66 76.43a88.76 88.76 0 00-8.3 13.18 91.08 91.08 0 00-5.16 12.13c-.74 2.3-.54 4.53.61 5.63a2.94 2.94 0 001.31.71 3.55 3.55 0 003-1.07c1.51-1.35 3.46-3.23 5.35-4.9a37.31 37.31 0 0113.92-7.8z" class="cls-1"/>
    <path d="M63.63 109.88a4.21 4.21 0 01-.87-.09 4.71 4.71 0 01-2.16-1.16c-1.63-1.55-2-4.39-1.07-7.43a93.88 93.88 0 015.27-12.39 90.55 90.55 0 018.47-13.44l1.57-2.05L88 95.33l-2.12.67a35.43 35.43 0 00-13.27 7.44c-1.07 1-2.16 2-3.18 2.91-.78.72-1.51 1.4-2.16 2a5.5 5.5 0 01-3.64 1.53zm10.88-30.29a88 88 0 00-6.6 10.82 89.89 89.89 0 00-5 11.89c-.58 1.83-.37 3.3.16 3.8a1.19 1.19 0 00.48.27 1.93 1.93 0 001.43-.66c.64-.57 1.35-1.24 2.11-1.94 1-1 2.16-2 3.25-3a38.84 38.84 0 0112.47-7.46z"/>
    <path d="M102.58 76.43a88.76 88.76 0 018.3 13.18 91.08 91.08 0 015.12 12.13c.74 2.3.54 4.53-.61 5.63a2.94 2.94 0 01-1.31.71 3.55 3.55 0 01-3-1.07c-1.5-1.35-3.46-3.23-5.35-4.9a37.31 37.31 0 00-13.92-7.8z" class="cls-1"/>
    <path d="M113.61 109.88a5.5 5.5 0 01-3.64-1.57c-.65-.58-1.38-1.26-2.16-2-1-1-2.11-2-3.18-2.91A35.43 35.43 0 0091.36 96l-2.14-.65 13.19-22 1.59 2.02a90.55 90.55 0 018.47 13.44 92.44 92.44 0 015.25 12.36c1 3.07.58 5.91-1 7.46a4.68 4.68 0 01-2.17 1.16 4.12 4.12 0 01-.94.09zM94.49 93.34A38.9 38.9 0 01107 100.8c1.09 1 2.21 2 3.25 3 .76.7 1.47 1.37 2.11 1.94a2.07 2.07 0 001.45.66 1.31 1.31 0 00.46-.27c.53-.5.75-2 .15-3.83a90.39 90.39 0 00-5-11.86 86.8 86.8 0 00-6.6-10.82z"/>
    <path d="M108 47.19c.28 22.24-9.94 53.7-19.42 53.7-8.58 0-19.7-31.46-19.42-53.7C69.43 28.72 80 1.75 88.62 1.75S107.81 28.72 108 47.19z" class="cls-1"/>
    <path d="M88.62 102.64c-1.84 0-3.71-1-5.57-2.84-8.26-8.36-15.84-33.94-15.6-52.63C67.67 29.42 78 0 88.62 0s20.95 29.42 21.17 47.17c.25 19.19-6.94 44.18-15.08 52.42-2 2.02-4.05 3.05-6.09 3.05zm0-99.14C82.11 3.5 71.19 27.92 71 47.21s7.78 43.23 14.59 50.13a4.93 4.93 0 003.08 1.8c1.34 0 2.7-1.1 3.6-2 7.46-7.56 14.3-31.82 14.07-49.92-.29-19.3-11.21-43.72-17.72-43.72z"/>
    <path d="M77.25 14.55h22.74" class="cls-1"/>
    <path d="M77.25 12.8h22.74v3.5H77.25z"/>
    <path d="M69.75 63.51h37.79" class="cls-1"/>
    <path d="M69.75 61.76h37.79v3.5H69.75zM88.62 51.13a10.26 10.26 0 1110.26-10.26 10.27 10.27 0 01-10.26 10.26zm0-17a6.76 6.76 0 106.76 6.75 6.76 6.76 0 00-6.76-6.76zM52.85 137.14h-.27a1.75 1.75 0 01-1.46-2c1.51-10 8.64-17.23 16.93-17.26 6.71 0 12.88 4.85 15.73 12.36a1.75 1.75 0 11-3.27 1.24c-2.33-6.14-7.22-10.1-12.46-10.1-6.45 0-12.25 6.16-13.48 14.28a1.76 1.76 0 01-1.72 1.48z"/>
    <path d="M26.77 144.41a1.88 1.88 0 01-.46-.06 1.75 1.75 0 01-1.23-2.14c.32-1.2 3.43-11.79 13-15.27 8.51-3.08 15.55 1.8 16.87 2.81a1.75 1.75 0 01-2.12 2.78c-1.07-.81-6.76-4.76-13.55-2.3-8 2.88-10.59 11.87-10.86 12.89a1.75 1.75 0 01-1.65 1.29z"/>
    <path d="M6.46 147.62a1.73 1.73 0 01-1.15-.43 1.76 1.76 0 01-.17-2.47c5.49-6.27 14.28-7.69 22.41-3.62a1.75 1.75 0 11-1.55 3.13C19.33 140.9 12.18 142 7.78 147a1.74 1.74 0 01-1.32.62zM124.39 137.09a1.76 1.76 0 01-1.73-1.49c-1.23-8.12-7-14.26-13.48-14.28-5.24 0-10.13 4-12.46 10.1a1.75 1.75 0 01-3.27-1.24c2.85-7.51 9-12.36 15.73-12.36 8.29 0 15.42 7.28 16.94 17.25a1.77 1.77 0 01-1.47 2z"/>
    <path d="M150.47 144.36a1.75 1.75 0 01-1.69-1.29c-.27-1-2.9-10-10.86-12.89-6.79-2.47-12.48 1.49-13.55 2.3a1.75 1.75 0 01-2.12-2.78c1.32-1 8.37-5.9 16.87-2.82 9.62 3.49 12.72 14.08 13 15.28a1.75 1.75 0 01-1.23 2.14 1.82 1.82 0 01-.42.06z"/>
    <path d="M170.78 147.57a1.77 1.77 0 01-1.32-.6c-4.4-5-11.55-6.13-18.2-2.79a1.76 1.76 0 01-1.57-3.14c8.13-4.06 16.92-2.64 22.41 3.62a1.76 1.76 0 01-1.32 2.91z"/>
    <path d="M49.02 64.09v2.72" class="cls-1"/>
    <path d="M49 68.56a1.75 1.75 0 01-1.75-1.75v-2.72a1.75 1.75 0 013.5 0v2.72A1.75 1.75 0 0149 68.56z"/>
    <path d="M49.02 74.09v2.72" class="cls-1"/>
    <path d="M49 78.56a1.75 1.75 0 01-1.75-1.75v-2.72a1.75 1.75 0 013.5 0v2.72A1.75 1.75 0 0149 78.56z"/>
    <path d="M55.38 70.45h-2.73" class="cls-1"/>
    <path d="M55.38 72.2h-2.73a1.75 1.75 0 110-3.5h2.73a1.75 1.75 0 110 3.5z"/>
    <path d="M45.38 70.45h-2.73" class="cls-1"/>
    <path d="M45.38 72.2h-2.73a1.75 1.75 0 110-3.5h2.73a1.75 1.75 0 110 3.5z"/>
    <path d="M137.02 95.36v2.73" class="cls-1"/>
    <path d="M137 99.84a1.75 1.75 0 01-1.75-1.75v-2.73a1.75 1.75 0 113.5 0v2.73a1.76 1.76 0 01-1.75 1.75z"/>
    <path d="M137.02 105.36v2.73" class="cls-1"/>
    <path d="M137 109.84a1.75 1.75 0 01-1.75-1.75v-2.73a1.75 1.75 0 113.5 0v2.73a1.76 1.76 0 01-1.75 1.75z"/>
    <path d="M143.38 101.72h-2.73" class="cls-1"/>
    <path d="M143.38 103.47h-2.73a1.75 1.75 0 010-3.5h2.73a1.75 1.75 0 010 3.5z"/>
    <path d="M133.38 101.72h-2.73" class="cls-1"/>
    <path d="M133.38 103.47h-2.73a1.75 1.75 0 010-3.5h2.73a1.75 1.75 0 010 3.5z"/>
  </g>
</svg>
