<svg xmlns="http://www.w3.org/2000/svg" fill="currentColor" viewBox="0 0 163.75 151.63">
  <defs>
    <style>
      .cls-1{fill:#fff}
    </style>
  </defs>
  <g>
    <path d="M149.36 5.13H9.86C4.43 5.13 0 10.26 0 16.57v103.74c0 6.31 4.43 11.44 9.86 11.44h139.5c5.44 0 9.86-5.13 9.86-11.44V16.57c0-6.31-4.42-11.44-9.86-11.44z"/>
    <rect width="156.93" height="124.63" x="5.07" y="1.75" class="cls-1" rx="10"/>
    <path d="M152 128.13H15.07a11.76 11.76 0 01-11.75-11.75V11.75A11.76 11.76 0 0115.07 0H152a11.76 11.76 0 0111.75 11.75v104.63A11.76 11.76 0 01152 128.13zM15.07 3.5a8.26 8.26 0 00-8.25 8.25v104.63a8.26 8.26 0 008.25 8.25H152a8.26 8.26 0 008.25-8.25V11.75A8.26 8.26 0 00152 3.5z"/>
    <path d="M14.83 1.75h137.4a9.76 9.76 0 019.77 9.76v6.85H5.07v-6.85a9.76 9.76 0 019.76-9.76z"/>
    <path d="M148.76 12.21h-8.31a1.75 1.75 0 010-3.5h8.31a1.75 1.75 0 010 3.5z" class="cls-1"/>
    <circle cx="18.51" cy="10.06" r="2.77" class="cls-1"/>
    <circle cx="30.98" cy="10.06" r="2.77" class="cls-1"/>
    <circle cx="43.45" cy="10.06" r="2.77" class="cls-1"/>
    <path d="M150.4 76.18H17.47a1.76 1.76 0 01-1.75-1.75V24.85a1.75 1.75 0 011.75-1.75H150.4a1.75 1.75 0 011.75 1.75v49.58a1.76 1.76 0 01-1.75 1.75zm-131.18-3.5h129.43V26.6H19.22zM42.26 116.29a1.76 1.76 0 01-1.71-1.38l-4.89-22.75-1.77 4.26a1.74 1.74 0 01-1.62 1.08h-9a1.75 1.75 0 110-3.5h7.84l3.47-8.35a1.75 1.75 0 013.33.3l4.35 20.26 5.15-23.95a1.75 1.75 0 013.34-.26l3.94 9.81 3.74-6.36a1.75 1.75 0 013.2.46l3.63 14.41 5.66-18.19a1.71 1.71 0 011.7-1.23 1.75 1.75 0 011.66 1.28l5.39 19.36 2.79-6.46A1.76 1.76 0 0184.07 94h5.34a1.75 1.75 0 010 3.5h-4.19l-4.29 10a1.78 1.78 0 01-1.73 1.06 1.75 1.75 0 01-1.57-1.28L72.5 88.81l-5.75 18.47a1.76 1.76 0 01-1.67 1.23 1.75 1.75 0 01-1.65-1.32l-4.1-16.3-3.43 5.75a1.78 1.78 0 01-1.63.86 1.76 1.76 0 01-1.5-1.1l-3.14-7.81L44 114.91a1.75 1.75 0 01-1.74 1.38z"/>
    <circle cx="115.72" cy="92.78" r="26.24" class="cls-1"/>
    <path d="M115.72 120.76a28 28 0 1128-28 28 28 0 01-28 28zm0-52.47a24.49 24.49 0 1024.49 24.49 24.51 24.51 0 00-24.49-24.49z"/>
    <ellipse cx="115.72" cy="92.78" class="cls-1" rx="17.49" ry="17.03"/>
    <path d="M115.72 111.56A18.79 18.79 0 11135 92.78a19 19 0 01-19.28 18.78zm0-34.06a15.29 15.29 0 1015.74 15.28 15.53 15.53 0 00-15.74-15.28z"/>
    <path d="M113.47 104.69h-.23a1.76 1.76 0 01-1.47-1.31l-3.23-13.15-2.69 6.23a1.76 1.76 0 01-1.61 1.06h-5.31a1.75 1.75 0 010-3.5h4.16l4.29-10a1.79 1.79 0 011.75-1.02 1.77 1.77 0 011.56 1.33l3.41 13.85 1.8-3.26a1.74 1.74 0 011.53-.91h14.83a1.75 1.75 0 010 3.5h-13.8l-3.46 6.27a1.77 1.77 0 01-1.53.91zM95 123.06a1.75 1.75 0 01-1.24-3l5.53-5.53a1.75 1.75 0 112.47 2.48l-5.52 5.52a1.77 1.77 0 01-1.24.53z"/>
    <path d="M97.19 125.62a6.72 6.72 0 01-1.38 2.91c-3.75 5.54-14.25 16.05-19.86 19.9a7.06 7.06 0 01-3 1.45 7 7 0 01-7-6.95 6 6 0 011.2-2.63c3.65-5.57 14.75-16.67 20.36-20.39a6.3 6.3 0 012.7-1.24 7 7 0 016.98 6.95z" class="cls-1"/>
    <path d="M72.93 151.63a8.71 8.71 0 01-8.7-8.7 7.07 7.07 0 011.49-3.6c3.76-5.72 15.06-17 20.85-20.87a7.13 7.13 0 013.67-1.54 8.71 8.71 0 018.7 8.7c0 1-.52 2.17-1.68 3.89-3.87 5.72-14.51 16.37-20.32 20.36-1.78 1.22-3.01 1.76-4.01 1.76zm17.31-31.21a7.41 7.41 0 00-1.74 1c-5.4 3.58-16.35 14.54-19.86 19.89a5.53 5.53 0 00-.91 1.73 5.19 5.19 0 005.2 5.14A8 8 0 0075 147c5.44-3.73 15.78-14.08 19.41-19.44a7 7 0 001.07-2 5.21 5.21 0 00-5.24-5.14zM44.47 56.39a6.75 6.75 0 116.75-6.75 6.76 6.76 0 01-6.75 6.75zm0-10a3.25 3.25 0 103.25 3.25 3.25 3.25 0 00-3.25-3.25z"/>
    <path d="M44.59 68.16a4.81 4.81 0 01-4.79-4.8v-.14a.76.76 0 00-.5-.66h-.11a.75.75 0 00-.84.15l-.07.07a4.75 4.75 0 01-3.4 1.42 4.81 4.81 0 01-3.4-8.2l.09-.08a.79.79 0 00-.57-1.36h-.25a4.8 4.8 0 010-9.6h.14a.75.75 0 00.66-.5 1 1 0 010-.1.77.77 0 00-.15-.85l-.08-.08a4.8 4.8 0 016.75-6.83l.09.09a.76.76 0 00.82.14 1.18 1.18 0 01.3-.1.77.77 0 00.3-.61v-.25a4.8 4.8 0 019.6 0V36a.77.77 0 00.46.7.79.79 0 00.87-.15l.08-.08a4.76 4.76 0 013.39-1.4 4.8 4.8 0 013.4 8.19l-.09.09a.77.77 0 00-.15.83 1.78 1.78 0 01.15.71v.12a1.75 1.75 0 01-3.48.26 4.25 4.25 0 011-4.38l.1-.1a1.3 1.3 0 00-.91-2.22 1.28 1.28 0 00-.92.38l-.09.09a4.29 4.29 0 01-7.29-3v-.14a1.3 1.3 0 10-2.6 0v.26a4.25 4.25 0 01-2.58 3.91 1.69 1.69 0 01-.44.12 4.24 4.24 0 01-4.37-1l-.08-.08a1.31 1.31 0 00-2.22.92 1.32 1.32 0 00.38.92l.1.09a4.39 4.39 0 01-3 7.41h-.18a1.3 1.3 0 100 2.6H31a4.28 4.28 0 013.05 7.27l-.1.1a1.3 1.3 0 000 1.84 1.27 1.27 0 00.92.39 1.34 1.34 0 00.92-.38l.08-.09a4.39 4.39 0 017.42 3v.18a1.3 1.3 0 102.59 0v-.26a4.29 4.29 0 017.28-3.05l.07.08a1.29 1.29 0 00.92.39 1.33 1.33 0 00.92-.39 1.3 1.3 0 000-1.82l-.1-.1a4.28 4.28 0 013-7.27h.14a1.3 1.3 0 001.3-1.3 1.75 1.75 0 013.5 0 4.81 4.81 0 01-4.8 4.8h-.13a.77.77 0 00-.7.46.78.78 0 00.15.86l.08.09a4.8 4.8 0 010 6.78A4.82 4.82 0 0154.19 64a4.77 4.77 0 01-3.35-1.37l-.1-.1a.75.75 0 00-.82-.13.76.76 0 00-.49.7v.26a4.81 4.81 0 01-4.84 4.8zM78 56.39a6.75 6.75 0 116.75-6.75A6.76 6.76 0 0178 56.39zm0-10a3.25 3.25 0 103.25 3.25A3.25 3.25 0 0078 46.39z"/>
    <path d="M78.14 68.16a4.81 4.81 0 01-4.8-4.8v-.14a.73.73 0 00-.5-.66h-.1a.75.75 0 00-.84.15l-.08.08a4.74 4.74 0 01-3.39 1.41A4.81 4.81 0 0165 56l.09-.09a.74.74 0 00.14-.83 1.75 1.75 0 113.2-1.41 4.23 4.23 0 01-.85 4.7l-.07.07a1.31 1.31 0 00.93 2.22 1.3 1.3 0 00.91-.38l.1-.1a4.38 4.38 0 017.4 3v.18a1.3 1.3 0 002.6 0v-.26a4.29 4.29 0 017.28-3.05l.07.07a1.3 1.3 0 001.84 0 1.26 1.26 0 00.38-.92 1.29 1.29 0 00-.38-.92l-.09-.09a4.28 4.28 0 013-7.28h.14a1.3 1.3 0 100-2.6h-.26a4.27 4.27 0 01-3.91-2.59 1.62 1.62 0 01-.12-.43 4.25 4.25 0 011-4.38l.11-.1a1.3 1.3 0 000-1.84 1.3 1.3 0 00-1.84 0l-.09.08a4.28 4.28 0 01-7.29-3v-.14a1.3 1.3 0 10-2.6 0v.26a4.26 4.26 0 01-2.58 3.91 1.69 1.69 0 01-.44.12 4.24 4.24 0 01-4.37-1l-.11-.11a1.26 1.26 0 00-.92-.38 1.25 1.25 0 00-.91.38 1.31 1.31 0 000 1.84l.1.1a4.39 4.39 0 01-3 7.4h-.16a1.3 1.3 0 00-1.3 1.3 1.75 1.75 0 01-3.5 0A4.81 4.81 0 0164.3 45h.14a.76.76 0 00.66-.5 1 1 0 010-.1.77.77 0 00-.15-.85l-.09-.08a4.81 4.81 0 010-6.78 4.74 4.74 0 013.39-1.41 4.81 4.81 0 013.4 1.4l.09.1a.78.78 0 00.83.14 1.18 1.18 0 01.3-.1.77.77 0 00.3-.61v-.25a4.8 4.8 0 019.6 0v.13a.77.77 0 00.46.7.79.79 0 00.87-.15l.07-.07a4.8 4.8 0 016.79 0 4.81 4.81 0 010 6.79l-.1.09a.77.77 0 00-.14.83 1.6 1.6 0 01.1.31.79.79 0 00.61.3h.25a4.8 4.8 0 110 9.6h-.08a.76.76 0 00-.69.46.78.78 0 00.15.86l.08.08a4.8 4.8 0 01-6.75 6.83l-.1-.09a.74.74 0 00-.83-.14.77.77 0 00-.48.7v.26a4.81 4.81 0 01-4.84 4.71zM137.11 40.6h-27a1.75 1.75 0 010-3.5h27a1.75 1.75 0 010 3.5zM128.11 49.6h-18a1.75 1.75 0 010-3.5h18a1.75 1.75 0 010 3.5z"/>
  </g>
</svg>
