<svg xmlns="http://www.w3.org/2000/svg" fill="currentColor" viewBox="0 0 154.84 117.93">
  <defs>
    <style>
      .cls-1{fill:#fff}
    </style>
  </defs>
  <g>
    <rect width="117" height="90" x="37.84" y="6.29" rx="12.53"/>
    <rect width="117" height="90" x="33.55" y="2" class="cls-1" rx="10"/>
    <path d="M140.55 94h-97a12 12 0 01-12-12V12a12 12 0 0112-12h97a12 12 0 0112 12v70a12 12 0 01-12 12zm-97-90a8 8 0 00-8 8v70a8 8 0 008 8h97a8 8 0 008-8V12a8 8 0 00-8-8z"/>
    <path d="M43.1 63.47s-4.62 30.68-4 30l43.17-47.56a6.22 6.22 0 00-.08-8.8l-.2-.19a6.22 6.22 0 00-8.8.08L53.72 58.75c-5.2 4.8-7.72 4.43-10.62 4.72z"/>
    <path d="M39.24 61H25.32A23.32 23.32 0 002 84.33V114a1.91 1.91 0 001.91 1.91h41.18A1.91 1.91 0 0047 114V80.53a4 4 0 011-2.65l30.57-34a6.22 6.22 0 000-8.8l-.2-.2a6.22 6.22 0 00-8.8 0L49.9 56.4c-5.24 4.74-7.71 4.35-10.66 4.6z" class="cls-1"/>
    <path d="M45.09 117.93H3.91A3.91 3.91 0 010 114V84.33A25.35 25.35 0 0125.32 59h13.83l.94-.07c2.31-.15 4.31-.28 8.4-4l19.62-21.44a8.24 8.24 0 0111.69-.07l.19.19a8.25 8.25 0 01.01 11.6l-30.54 34a2 2 0 00-.5 1.31V114a3.91 3.91 0 01-3.87 3.93zm-41.09-4h41v-33.4a5.91 5.91 0 011.53-4l30.64-34.11a4.22 4.22 0 000-6l-.2-.2a4.21 4.21 0 00-6 0L51.24 57.88c-5.17 4.68-8.21 4.88-10.89 5l-.93.07h-14.1A21.35 21.35 0 004 84.33z"/>
    <path d="M14.46 88.01v27.13" class="cls-1"/>
    <path d="M14.46 117.14a2 2 0 01-2-2V88a2 2 0 014 0v27.13a2 2 0 01-2 2.01z"/>
    <circle cx="33.5" cy="46.95" r="13.5" class="cls-1"/>
    <path d="M33.5 62.45A15.5 15.5 0 1149 47a15.51 15.51 0 01-15.5 15.45zm0-27A11.5 11.5 0 1045 47a11.51 11.51 0 00-11.5-11.55z"/>
    <path d="M33.68 18.23l116.31-.44" class="cls-1"/>
    <path d="M33.68 16.01h116.31v4H33.68z" transform="rotate(-.22 93.722 18.41)"/>
    <path d="M33.38 68.88c-5.15 0-9.9-2.5-12.09-6.37l3.48-2c1.5 2.64 4.88 4.35 8.61 4.35 4.1 0 7.69-2 8.94-5L46 61.42c-1.85 4.46-6.93 7.46-12.62 7.46z"/>
    <path d="M103.9 26.13h31.65v22.15H103.9z" class="cls-1"/>
    <path d="M135.55 50.29H103.9a2 2 0 01-2-2V26.13a2 2 0 012-2h31.65a2 2 0 012 2v22.16a2 2 0 01-2 2zm-29.65-4h27.65V28.13H105.9z"/>
    <path d="M103.9 56.26h31.65v22.15H103.9z" class="cls-1"/>
    <path d="M135.55 80.42H103.9a2 2 0 01-2-2V56.26a2 2 0 012-2h31.65a2 2 0 012 2v22.16a2 2 0 01-2 2zm-29.65-4h27.65V58.26H105.9z"/>
    <path d="M92 78.22H65" class="cls-1"/>
    <path d="M92 80.22H65a2 2 0 010-4h27a2 2 0 010 4z"/>
    <path d="M92 69.22h-9" class="cls-1"/>
    <path d="M92 71.22h-9a2 2 0 010-4h9a2 2 0 010 4z"/>
    <path d="M51.45 11.66h-9" class="cls-1"/>
    <path d="M51.45 13.66h-9a2 2 0 010-4h9a2 2 0 010 4z"/>
  </g>
</svg>
