<svg xmlns="http://www.w3.org/2000/svg" viewBox="0 0 140 140"><defs><style>.cls-1,.cls-4,.cls-5{fill:#fff;}.cls-1,.cls-2,.cls-3,.cls-4,.cls-5{stroke:#000;}.cls-1{stroke-miterlimit:10;}.cls-1,.cls-3,.cls-4{stroke-width:4px;}.cls-2,.cls-3{fill:none;}.cls-2,.cls-3,.cls-4,.cls-5{stroke-linecap:round;stroke-linejoin:round;}.cls-2,.cls-5{stroke-width:3.5px;}</style></defs><g id="dev"><circle class="cls-1" cx="67.95" cy="72.29" r="59.48"/></g><g id="leader"><path class="cls-2" d="M93.84,125.24A66.14,66.14,0,0,0,118,102.88L99.18,73.78,83.7,100.58S77.72,133.85,93.84,125.24Z"/><polyline class="cls-3" points="109.96 92.54 103.52 98.98 97.34 92.8 91.34 98.8 84.86 92.32"/><path class="cls-2" d="M39.81,124.24c-16.12-8.61-23.11-21.36-23.11-21.36l17.77-29.1,15.47,26.8S55.93,132.85,39.81,124.24Z"/><polyline class="cls-3" points="23.69 92.99 30.13 99.43 36.3 93.25 42.3 99.25 48.79 92.77"/><path class="cls-4" d="M66.88,131.92c-21.45,0-36.6-13.6-36.6-13.6l14.95-25.9,21.65-37.5,21.65,37.5,15.63,27.06S88.34,131.92,66.88,131.92Z"/><polyline class="cls-3" points="49 86.64 58 95.65 66.65 87 75.05 95.4 84.11 86.33"/><polyline class="cls-5" points="66.88 54.92 66.88 34.49 84.86 34.49 79.62 39.73 84.73 44.84 66.88 44.71"/><line class="cls-3" x1="36.24" y1="40.69" x2="36.24" y2="44.57"/><line class="cls-3" x1="36.24" y1="51.36" x2="36.24" y2="55.24"/><line class="cls-3" x1="28.97" y1="48.02" x2="32.84" y2="48.02"/><line class="cls-3" x1="39.63" y1="48.02" x2="43.51" y2="48.02"/><line class="cls-3" x1="102.15" y1="44.09" x2="102.15" y2="47.96"/><line class="cls-3" x1="102.15" y1="54.76" x2="102.15" y2="58.63"/><line class="cls-3" x1="94.88" y1="51.41" x2="98.76" y2="51.41"/><line class="cls-3" x1="105.55" y1="51.41" x2="109.43" y2="51.41"/></g></svg>