<svg xmlns="http://www.w3.org/2000/svg" viewBox="0 0 140 140"><defs><style>.cls-1,.cls-2{fill:#fff;}.cls-1,.cls-2,.cls-3{stroke:#000;stroke-miterlimit:10;stroke-width:4px;}.cls-2,.cls-3{stroke-linecap:round;}.cls-3{fill:none;}</style></defs><g id="dev"><circle class="cls-1" cx="70" cy="69.06" r="59.48"/></g><g id="leader"><path class="cls-1" d="M44,67.28H33.85a17,17,0,0,0-17,17v8C16.83,110.7,49.66,125,49.66,125c.77,0,0-18.24,0-19V81.52a2.92,2.92,0,0,1,.74-1.93L72.71,54.75a4.56,4.56,0,0,0,0-6.43l-.15-.14a4.54,4.54,0,0,0-6.42,0L51.78,63.91C48,67.37,46.15,67.09,44,67.28Z"/><line class="cls-2" x1="25.92" y1="86.98" x2="25.92" y2="106.77"/><circle class="cls-1" cx="39.81" cy="55.28" r="9.85"/><path class="cls-1" d="M47.59,67c-1.1,2.65-4.21,4.55-7.86,4.55a8.6,8.6,0,0,1-7.56-3.91"/><line class="cls-1" x1="52.14" y1="27.11" x2="62.9" y2="43.34"/><line class="cls-1" x1="88.24" y1="27.67" x2="77.86" y2="43.34"/><line class="cls-1" x1="70.38" y1="22.36" x2="70.38" y2="38.75"/><path class="cls-1" d="M96,66.31H106.1a17,17,0,0,1,17,17v8c0,18.36-32.84,32.62-32.84,32.62-.77,0,0-18.24,0-19V80.55a2.87,2.87,0,0,0-.74-1.93L67.24,53.78a4.53,4.53,0,0,1,0-6.42l.14-.15a4.54,4.54,0,0,1,6.42,0L88.17,62.94C92,66.41,93.79,66.12,96,66.31Z"/><line class="cls-2" x1="114.02" y1="86.01" x2="114.02" y2="105.81"/><circle class="cls-1" cx="100.13" cy="54.31" r="9.85"/><path class="cls-1" d="M92.35,66.05c1.1,2.64,4.21,4.54,7.87,4.54a8.59,8.59,0,0,0,7.55-3.91"/><line class="cls-3" x1="49.66" y1="105.96" x2="25.92" y2="106.77"/><line class="cls-3" x1="90.28" y1="104.99" x2="114.02" y2="104.99"/></g></svg>