<svg xmlns="http://www.w3.org/2000/svg" data-name="Layer 1" viewBox="0 0 303.85 343.59">
  <path fill="#ffa300" d="M203.71 318l-34.93-32.49-25.48-25.48L131.5 318h72.21z"/>
  <circle cx="152.92" cy="154.08" r="134.85" fill="#fbb03b"/>
  <path d="M217.47 140.31a80.62 80.62 0 00-84-74.33c-43.3 1.89-77 38.46-77 81.8V318h80.62a80.61 80.61 0 0080.62-80.62V172.8h34.69z"/>
  <path fill="#fff" d="M201.14 163.61l-.09 90.06-60-67.16-17.15-19.22a44.26 44.26 0 0117.24-70.84 44.26 44.26 0 0160 41.4z"/>
  <path d="M168.4 136.3a13 13 0 1010.16 10.17 13 13 0 00-10.16-10.17z"/>
</svg>
