<svg xmlns="http://www.w3.org/2000/svg" fill="none" viewBox="0 0 73 73">
  <path fill="#5CB2E3" d="M36.5 73C56.658 73 73 56.658 73 36.5S56.658 0 36.5 0 0 16.342 0 36.5 16.342 73 36.5 73z"/>
  <path fill="#fff" d="M51.58 23.93c-6.58 0-10.86 4.3-15 8.45l-.08.07-.22-.22c-3.87-3.89-8.26-8.3-14.21-8.3A12.6 12.6 0 009.18 36.5c0 7.28 5.15 12.52 12.24 12.52 6.58 0 10.86-4.28 15-8.43l.08-.08.22.22c3.88 3.93 8.26 8.29 14.21 8.29A12.59 12.59 0 0063.82 36.5c0-7.4-5.03-12.57-12.24-12.57zm6.1 12.57a6.67 6.67 0 01-6.67 6.67c-3.72 0-6.53-2.77-9.26-5.45-.43-.42-.85-.84-1.27-1.24 2.91-3 6.52-6.65 10.78-6.65a6.331 6.331 0 016.42 6.67zm-35.69-6.67c3.72 0 6.54 2.77 9.26 5.45l1.28 1.24c-2.91 3-6.52 6.65-10.78 6.65a6.33 6.33 0 01-6.43-6.67 6.67 6.67 0 016.67-6.67z"/>
</svg>
