<svg xmlns="http://www.w3.org/2000/svg" fill="none" viewBox="0 0 300 300">
  <circle cx="150" cy="150" r="150" fill="#020405"/>
  <path fill="#5ED9C3" d="M111.33 161.975l.077.01c1.356.164 2.467-.251 2.843-1.061l12.042-25.987c.694-1.495-1.343-3.538-3.846-3.86l-.542-.07c-1.385-.178-2.522.245-2.891 1.078l-11.577 26.045c-.669 1.508 1.393 3.542 3.894 3.845zM132.662 124.12c0-2.696-2.253-4.882-5.032-4.882-2.777 0-5.03 2.186-5.03 4.882 0 2.696 2.253 4.88 5.03 4.88 2.779 0 5.032-2.184 5.032-4.88z"/>
  <path fill="#FBFBFB" d="M81.026 124.219c.96-.02 1.839.561 2.288 1.566l9.743 21.68c.89 1.978 3.045 1.704 4.054-.221 4.672-8.92 9.139-18.401 13.08-27.378.387-.884 1.508-1.699 2.496-1.729 1.838-.052 3.33 1.937 2.63 3.585-5.527 13.026-12.276 26.049-17.803 39.076-.854 2.008-3.778 2.037-4.67.043l-9.449-21.075c-.491-1.098-1.6-1.584-2.64-1.462-.832.099-1.619.584-2.01 1.462l-9.55 21.283c-.88 1.963-3.744 1.975-4.641.021-6.018-13.098-12.256-26.247-18.272-39.348-.759-1.649 0-3.554 2.443-3.554.938-.073 2.03.916 2.445 1.778 4.275 8.887 9.357 18.559 13.75 27.663.938 1.947 3.202 2.058 4.334-.446l9.498-21.454 2.275-1.49zm-2.274 1.49c.43-.975 1.348-1.47 2.275-1.49l-2.275 1.49zM184.484 154.942l-9.493-21.446c-.875-1.975-3.756-1.991-4.655-.026-4.167 9.129-6.065-.784-.052-13.882.9-1.955 3.766-1.943 4.648.021l9.543 21.277c.887 1.974 3.771 1.974 4.655-.001l9.443-21.067c.896-1.995 3.822-1.968 4.676.044l16.58 39.067c.347.819.205 1.68-.253 2.329a2.546 2.546 0 01-2.168 1.069c-.019-.001-.04-.001-.057-.003a2.536 2.536 0 01-2.261-1.495c-3.938-8.975-7.877-17.951-11.817-26.926-.872-1.987-3.772-2-4.662-.019l-9.468 21.071c-.888 1.976-3.781 1.969-4.659-.013z"/>
  <path fill="#FBFBFB" d="M156.236 155.052l-9.494-21.446c-.874-1.975-3.755-1.991-4.654-.025-4.167 9.128-8.337 18.255-12.504 27.382a2.542 2.542 0 01-2.257 1.466l-.954.022c-1.864.045-3.141-1.811-2.383-3.463l18.046-39.29c.9-1.955 3.765-1.942 4.647.021l9.544 21.277c.886 1.974 3.771 1.974 4.655-.001l9.443-21.067c.896-1.995 3.822-1.968 4.675.044 5.526 13.022 3.964 23.016.025 14.042-.872-1.988-3.772-2.001-4.662-.02l-9.47 21.071c-.887 1.976-3.78 1.969-4.657-.013zM231.903 134.161l-3.319 7.522c-.669 1.515.477 3.201 2.177 3.201h6.675c1.703 0 2.848-1.695 2.172-3.211l-3.357-7.52c-.825-1.85-3.531-1.844-4.348.008zm5.841-14.14c5.527 12.241 16.197 35.612 17.923 39.689.352.829-.736 2.306-1.859 2.545-1.576.334-3.895.382-4.413-.871-1.466-3.546-2.093-4.785-4.268-8.735-.589-1.069-2.094-1.946-3.345-1.946h-13.679c-2.151 0-4.097 1.322-5.017 3.083-2.586 4.953-2.283 4.884-3.086 6.714-.757 1.646-1.644.539-2.373-1.552a2.525 2.525 0 01-.067-.209L214 146l1.5 2.5c.601 1 1.148 1 1.5 1 1 0 1.664-1.496 1.664-1.496l12.711-27.986c1.22-2.692 5.153-2.69 6.369.003z"/>
  <path fill="#5ED9C3" d="M118.384 178.8h4.68v21.24h13.176V204h-17.856v-25.2zm29.543 5.76c2.832 0 4.992.684 6.48 2.052 1.512 1.344 2.268 3.384 2.268 6.12V204h-4.248v-2.34c-.552.84-1.344 1.488-2.376 1.944-1.008.432-2.232.648-3.672.648s-2.7-.24-3.78-.72c-1.08-.504-1.92-1.188-2.52-2.052-.576-.888-.864-1.884-.864-2.988 0-1.728.636-3.108 1.908-4.14 1.296-1.056 3.324-1.584 6.084-1.584h4.968v-.288c0-1.344-.408-2.376-1.224-3.096-.792-.72-1.98-1.08-3.564-1.08-1.08 0-2.148.168-3.204.504-1.032.336-1.908.804-2.628 1.404l-1.764-3.276c1.008-.768 2.22-1.356 3.636-1.764a16.178 16.178 0 014.5-.612zm-.612 16.416c1.128 0 2.124-.252 2.988-.756a4.275 4.275 0 001.872-2.232v-2.232h-4.644c-2.592 0-3.888.852-3.888 2.556 0 .816.324 1.464.972 1.944.648.48 1.548.72 2.7.72zm24.531-16.416c1.872 0 3.54.408 5.004 1.224a8.795 8.795 0 013.492 3.456c.84 1.488 1.26 3.204 1.26 5.148 0 1.944-.42 3.672-1.26 5.184a8.795 8.795 0 01-3.492 3.456c-1.464.816-3.132 1.224-5.004 1.224-1.32 0-2.532-.228-3.636-.684a6.99 6.99 0 01-2.736-2.052V204h-4.284v-26.712h4.5v9.828a7.595 7.595 0 012.7-1.908c1.056-.432 2.208-.648 3.456-.648zm-.504 15.84c1.656 0 3.012-.552 4.068-1.656 1.08-1.104 1.62-2.556 1.62-4.356 0-1.8-.54-3.252-1.62-4.356-1.056-1.104-2.412-1.656-4.068-1.656-1.08 0-2.052.252-2.916.756-.864.48-1.548 1.176-2.052 2.088-.504.912-.756 1.968-.756 3.168 0 1.2.252 2.256.756 3.168a5.461 5.461 0 002.052 2.124c.864.48 1.836.72 2.916.72z"/>
</svg>
