<svg xmlns="http://www.w3.org/2000/svg" fill="none" viewBox="0 0 450 103">
  <g clip-path="url(#clip0)">
    <path fill="#141C26" d="M8 0A7 7 0 00.92 4.93 6.54 6.54 0 000 8.32v85.76a7.85 7.85 0 004 7.09 7.648 7.648 0 008.32 0 7.837 7.837 0 004-7.09V8.32a8 8 0 00-2.46-5.85A7.37 7.37 0 008 0zm123.69 4a7 7 0 00-7.08 4.93 6.447 6.447 0 00-.93 3.39v81.76a7.853 7.853 0 004 7.09 7.65 7.65 0 008.32 0 7.834 7.834 0 004-7.09V12.32a7.995 7.995 0 00-2.46-5.85A7.367 7.367 0 00131.69 4zM84.5 8.36a7 7 0 004.93 7.08 6.45 6.45 0 003.39.93H171a7.86 7.86 0 007.09-4 7.648 7.648 0 000-8.32A7.856 7.856 0 00171 0H92.82A8 8 0 0087 2.5a7.37 7.37 0 00-2.5 5.86zm86.23 20.71a7 7 0 00-7.09 4.93 6.543 6.543 0 00-.92 3.39v56.69a7.828 7.828 0 004 7.09 7.65 7.65 0 008.32 0 7.834 7.834 0 004-7.09V37.39a8.002 8.002 0 00-2.46-5.86 7.403 7.403 0 00-5.85-2.46zm38.52-29a8.354 8.354 0 016.16 2.46 7.004 7.004 0 012.16 5.86v21.3h10.17a8 8 0 017.39 4.31c1.65 2.46 1.65 5.14 0 8a7.412 7.412 0 01-7.39 4h-10.17v32c0 3.08.51 5.14 1.54 6.16a4.38 4.38 0 003.08 1.54 9.23 9.23 0 006.16-.3 8 8 0 018.65 2.21c2.06 2.06 2.677 4.727 1.85 8a7.737 7.737 0 01-5.85 5.86l-5.86.92c-9.04.62-15.817-1.843-20.33-7.39-3.7-4.32-5.55-9.987-5.55-17V46h-4.93a6.83 6.83 0 01-7.09-4c-1.64-2.87-1.64-5.55 0-8a7.35 7.35 0 017.09-4.31h4.93V8.43a8.714 8.714 0 014.29-7.71c1.193-.4 2.442-.607 3.7-.61V.07zm45.92 29c2.29.012 4.491.89 6.16 2.46a8.358 8.358 0 012.47 6.17v35.12a14.45 14.45 0 001.54 7.09c1.44 2.67 3.18 4.42 5.24 5.24 1.991.634 4.071.944 6.16.92 5.127 0 8.62-1.54 10.48-4.62l.92-1.54a16.893 16.893 0 001.54-7.09V37.7a7.997 7.997 0 014.32-7.4c2.88-1.64 5.547-1.64 8 0a7.997 7.997 0 014.31 7.4v35.12c-1.233 14.18-7.6 23.424-19.1 27.73a29.445 29.445 0 01-10.48 1.85c-9.86 0-17.563-3.697-23.11-11.09a27.634 27.634 0 01-2.77-4 31 31 0 01-3.7-14.49V37.7c0-3.7 1.54-6.27 4.62-7.71a6.541 6.541 0 013.4-.92zm122.19 39.75V9.35a7.367 7.367 0 00-2.47-5.85A7 7 0 00369 .72a7.54 7.54 0 00-7.4 4.93 9.992 9.992 0 00-.61 3.7v23.42a31.811 31.811 0 00-13.25-3.08c-5.96.407-10.89 1.947-14.79 4.62-9.633 6.367-14.447 16.93-14.44 31.69 0 12.947 4 22.91 12 29.89l2.49 1.58a26.425 26.425 0 0013.86 4.93h.93a27.487 27.487 0 0014.79-3.08c6.947-3.7 11.463-10.273 13.55-19.72a44.42 44.42 0 001.23-10.78zM361 59v9.86c.2 8.834-1.857 14.167-6.17 16a8.7 8.7 0 01-5.83 1.52h-1.23a27.883 27.883 0 01-6.16-2.46c-4.32-4.113-6.58-10.073-6.78-17.88 0-9.033 2.26-15.09 6.78-18.17a12.998 12.998 0 016.16-2.16c2.433.293 4.815.916 7.08 1.85 2.88 1.64 4.73 3.487 5.55 5.54a24.49 24.49 0 01.6 5.9zm61.5 26.5h-2.78c-6.767-1.026-10.873-5.026-12.32-12H441c3.7 0 6.167-1.643 7.4-4.93a8.262 8.262 0 00.62-3.08v-3.14c0-14.38-4.93-24.653-14.79-30.82a25.63 25.63 0 00-12.64-3.08 28.58 28.58 0 00-16.94 5.24c-9.04 5.96-13.87 15.924-14.49 29.89a9.652 9.652 0 000 3.39c.62 13.334 5.45 23.297 14.49 29.89 4.927 3.493 9.957 5.24 15.09 5.24 7.187.2 12.323-.007 15.41-.62a25.201 25.201 0 0010.78-5.24 6.768 6.768 0 003.07-7.39c-.42-3.286-1.963-5.546-4.63-6.78a8.17 8.17 0 00-8.32 1.54c-1.82 1.234-6.327 1.85-13.52 1.85l-.03.04zm-1.24-40.37a10.421 10.421 0 015.24 1.23c3.293 1.654 5.35 5.044 6.17 10.17v.62h-25.24c.82-4.52 2.873-7.91 6.16-10.17a13.14 13.14 0 016.16-1.85h1.54-.03z"/>
    <path fill="#5CB2E3" d="M69.62 101.98c20.158 0 36.5-16.342 36.5-36.5s-16.342-36.5-36.5-36.5-36.5 16.342-36.5 36.5 16.342 36.5 36.5 36.5z"/>
    <path fill="#fff" d="M84.7 52.91c-6.58 0-10.86 4.3-15 8.45l-.08.07-.22-.22c-3.87-3.89-8.26-8.3-14.21-8.3A12.6 12.6 0 0042.3 65.48C42.3 72.76 47.45 78 54.54 78c6.58 0 10.86-4.28 15-8.43l.08-.08.22.22C73.72 73.64 78.1 78 84.05 78a12.59 12.59 0 0012.89-12.52c0-7.4-5.03-12.57-12.24-12.57zm6.1 12.57a6.67 6.67 0 01-6.67 6.67c-3.72 0-6.53-2.77-9.26-5.45-.43-.42-.85-.84-1.27-1.24 2.91-3 6.52-6.65 10.78-6.65a6.33 6.33 0 016.42 6.67zm-35.69-6.67c3.72 0 6.54 2.77 9.26 5.45l1.28 1.24c-2.91 3-6.52 6.65-10.78 6.65a6.33 6.33 0 01-6.43-6.67 6.67 6.67 0 016.67-6.67z"/>
  </g>
  <defs>
    <clipPath id="clip0">
      <path fill="#fff" d="M0 0h449.2v102.5H0z"/>
    </clipPath>
  </defs>
</svg>
