<svg xmlns="http://www.w3.org/2000/svg" fill="none" viewBox="0 0 306 222">
  <path fill="#1A1035" d="M10.595 177.2H.2V221h7.685v-13.27l-.358-19.48 5.094 18.02h4.14l5.689-18.824-.358 20.284V221h7.685v-43.8H19.382l-4.676 16.293-4.11-16.293zM47.017 221v-15.6l-12.6-28.2h9.42l5.52 13.2c.96 2.28 1.74 4.88 2.34 7.8.56-2.92 1.3-5.52 2.22-7.8l5.34-13.2h9.36l-12.6 28.2V221h-9zM85.693 221.6c-3.04 0-5.72-.52-8.04-1.56-2.28-1.04-4.04-2.5-5.28-4.38-1.24-1.92-1.86-4.14-1.86-6.66h9c0 1.48.56 2.66 1.68 3.54 1.16.84 2.72 1.26 4.68 1.26 1.88 0 3.34-.42 4.38-1.26 1.08-.84 1.62-2 1.62-3.48 0-1.28-.4-2.38-1.2-3.3-.8-.92-1.92-1.54-3.36-1.86l-4.44-1.02c-3.72-.88-6.62-2.5-8.7-4.86-2.04-2.4-3.06-5.32-3.06-8.76 0-2.56.58-4.78 1.74-6.66 1.2-1.92 2.88-3.4 5.04-4.44 2.2-1.04 4.76-1.56 7.68-1.56 4.48 0 8.02 1.12 10.62 3.36 2.64 2.2 3.96 5.18 3.96 8.94h-9c0-1.4-.5-2.5-1.5-3.3-1-.8-2.4-1.2-4.2-1.2-1.72 0-3.04.4-3.96 1.2-.92.76-1.38 1.86-1.38 3.3 0 1.28.36 2.38 1.08 3.3.76.92 1.82 1.52 3.18 1.8l4.68 1.08c3.88.92 6.82 2.54 8.82 4.86 2 2.28 3 5.18 3 8.7 0 2.56-.64 4.82-1.92 6.78-1.24 1.96-3 3.48-5.28 4.56-2.28 1.08-4.94 1.62-7.98 1.62zM124.37 221h-9v-35.4h-11.1v-8.4h31.2v8.4h-11.1V221zM167.246 221h-26.4v-7.8h8.7V185h-8.7v-7.8h26.4v7.8h-8.7v28.2h8.7v7.8zM188.463 221.6c-2.92 0-5.48-.54-7.68-1.62-2.2-1.12-3.92-2.68-5.16-4.68-1.2-2-1.8-4.3-1.8-6.9v-18.6c0-2.64.6-4.96 1.8-6.96 1.24-2 2.96-3.54 5.16-4.62s4.76-1.62 7.68-1.62 5.48.54 7.68 1.62c2.2 1.08 3.9 2.62 5.1 4.62 1.24 2 1.86 4.32 1.86 6.96h-9c0-1.72-.5-3.04-1.5-3.96-.96-.96-2.34-1.44-4.14-1.44-1.8 0-3.2.48-4.2 1.44-.96.92-1.44 2.24-1.44 3.96v18.6c0 1.72.48 3.06 1.44 4.02 1 .92 2.4 1.38 4.2 1.38 1.8 0 3.18-.46 4.14-1.38 1-.96 1.5-2.3 1.5-4.02h9c0 2.64-.62 4.96-1.86 6.96-1.2 2-2.9 3.54-5.1 4.62-2.2 1.08-4.76 1.62-7.68 1.62zM222.4 221.6c-2.92 0-5.46-.54-7.62-1.62-2.16-1.12-3.84-2.66-5.04-4.62-1.16-2-1.74-4.32-1.74-6.96v-18.6c0-2.64.58-4.94 1.74-6.9 1.2-2 2.88-3.54 5.04-4.62 2.16-1.12 4.7-1.68 7.62-1.68s5.46.56 7.62 1.68c2.16 1.08 3.82 2.62 4.98 4.62 1.2 1.96 1.8 4.26 1.8 6.9v18.6c0 2.64-.6 4.96-1.8 6.96-1.16 1.96-2.82 3.5-4.98 4.62-2.16 1.08-4.7 1.62-7.62 1.62zm0-7.8c1.8 0 3.14-.46 4.02-1.38.92-.92 1.38-2.26 1.38-4.02v-18.6c0-3.6-1.8-5.4-5.4-5.4-3.6 0-5.4 1.8-5.4 5.4v18.6c0 1.76.44 3.1 1.32 4.02.92.92 2.28 1.38 4.08 1.38zM242.176 221v-43.8h10.5l11.34 33.9c-.64-7-.96-12.3-.96-15.9v-18h7.92V221h-10.5l-11.22-33.9c.56 6.2.84 11.1.84 14.7V221h-7.92zM290.753 221.6c-3.04 0-5.72-.52-8.04-1.56-2.28-1.04-4.04-2.5-5.28-4.38-1.24-1.92-1.86-4.14-1.86-6.66h9c0 1.48.56 2.66 1.68 3.54 1.16.84 2.72 1.26 4.68 1.26 1.88 0 3.34-.42 4.38-1.26 1.08-.84 1.62-2 1.62-3.48 0-1.28-.4-2.38-1.2-3.3-.8-.92-1.92-1.54-3.36-1.86l-4.44-1.02c-3.72-.88-6.62-2.5-8.7-4.86-2.04-2.4-3.06-5.32-3.06-8.76 0-2.56.58-4.78 1.74-6.66 1.2-1.92 2.88-3.4 5.04-4.44 2.2-1.04 4.76-1.56 7.68-1.56 4.48 0 8.02 1.12 10.62 3.36 2.64 2.2 3.96 5.18 3.96 8.94h-9c0-1.4-.5-2.5-1.5-3.3-1-.8-2.4-1.2-4.2-1.2-1.72 0-3.04.4-3.96 1.2-.92.76-1.38 1.86-1.38 3.3 0 1.28.36 2.38 1.08 3.3.76.92 1.82 1.52 3.18 1.8l4.68 1.08c3.88.92 6.82 2.54 8.82 4.86 2 2.28 3 5.18 3 8.7 0 2.56-.64 4.82-1.92 6.78-1.24 1.96-3 3.48-5.28 4.56-2.28 1.08-4.94 1.62-7.98 1.62z"/>
  <path fill="#4E33B9" d="M152.503 94.53a36.717 36.717 0 01-20.585-6.326 37.423 37.423 0 01-13.647-16.842 37.97 37.97 0 01-2.109-21.683 37.683 37.683 0 0110.141-19.216 36.91 36.91 0 0118.972-10.27 36.618 36.618 0 0121.408 2.135 37.166 37.166 0 0116.629 13.822A37.876 37.876 0 01189.556 57c-.017 9.948-3.927 19.484-10.872 26.518-6.945 7.034-16.359 10.994-26.181 11.011zm0-64.75a26.635 26.635 0 00-14.931 4.587 27.15 27.15 0 00-9.898 12.216 27.547 27.547 0 00-1.53 15.728 27.329 27.329 0 007.356 13.937 26.77 26.77 0 0013.76 7.45 26.56 26.56 0 0015.528-1.55 26.95 26.95 0 0012.061-10.025A27.47 27.47 0 00179.378 57c-.009-7.216-2.844-14.134-7.882-19.237-5.038-5.103-11.868-7.974-18.993-7.983z"/>
  <path fill="#1A1035" d="M245.258 53.307C243.049 51.13 190.747 0 152.503 0c-38.244 0-90.516 51.13-92.755 53.307L56 57l3.748 3.693C61.987 62.87 114.253 114 152.503 114c8.891 0 18.559-2.765 28.138-7.04l-7.735-7.835c-7.1 2.826-14.051 4.566-20.415 4.566-28.599 0-69.089-35.067-81.727-46.691 12.632-11.63 53.104-46.691 81.739-46.691 28.635 0 69.089 35.06 81.733 46.691a305.445 305.445 0 01-33.886 27.033l7.34 7.434a303.797 303.797 0 0037.568-30.774L249 57l-3.742-3.693z"/>
  <path fill="#4E33B9" d="M201.039 113.958l-30.078-30.987 7.196-7.288 37.209 38.202-14.327.073zM160.37 43.66l-1.994 6.773h-11.728l-2.042-6.773a14.52 14.52 0 00-5.624 7.176 14.724 14.724 0 00-.275 9.159 14.557 14.557 0 005.182 7.51 14.25 14.25 0 008.587 2.884 14.25 14.25 0 008.587-2.884 14.557 14.557 0 005.182-7.51 14.724 14.724 0 00-.275-9.159 14.52 14.52 0 00-5.624-7.176h.024z"/>
</svg>
