<svg xmlns="http://www.w3.org/2000/svg" fill="none" viewBox="0 0 320 300">
  <path fill="#76C2FF" d="M152.871 194c53.501 0 96.871-43.428 96.871-97s-43.37-97-96.871-97C99.371 0 56 43.428 56 97s43.37 97 96.871 97z"/>
  <path fill="#211EBF" d="M76.595 141.821a.966.966 0 00-1.023 1.283.972.972 0 00.4.5c14.9 9.432 26.697 10.514 34.032 10.081 30.6-1.782 60.665-33.784 66.31-39.792 6.877-7.333 18.853-21.463 33.231-22.914 2.542-.254 8.339-.738 13.45 3.17a17.49 17.49 0 016.75 11.507c.102.764 1.106 9.662-4.97 14.525-3.814 3.106-11.022 4.875-14.582.356-2.085-2.647-2.453-6.797-1.042-10.756a1.271 1.271 0 00-.284-1.168 1.268 1.268 0 00-1.127-.411c-3.662 1.172-10.298 4.214-13.272 11.457-4.844 11.877 4.64 23.626 5.352 24.479 9.941 11.941 28.514 10.413 39.905 5.614 16.527-6.976 26.798-24.581 28.985-41.626.165-1.273 2.873-25.065-12.217-43.395-13.984-17.033-38.787-23.945-58.835-17.962-46.083 13.735-48.308 83.659-95.625 94.976a56.848 56.848 0 01-25.438.076z"/>
  <path fill="#211EBF" d="M70.288 131.115a.828.828 0 00-.241 1.579 42.09 42.09 0 0019.692 2.546c10.335-1.273 17.963-6.365 23.048-10.388 32.1-25.357 35.342-64.08 68.573-82.933 4.932-2.8 18.548-10.273 36.231-8.16a58.595 58.595 0 0129.443 12.806c.953.751 2.161-.407 1.614-1.527-2.898-5.958-8.619-16.116-16.31-21.96a51.57 51.57 0 00-30.727-10.68c-3.445 0-15.255.23-29.239 8.657-41.952 25.23-37.63 83.812-77.802 104.052a58.107 58.107 0 01-24.281 6.008z"/>
  <path fill="#211EBF" d="M68.191 123.936a.619.619 0 00-.368.684.626.626 0 00.585.513 37.006 37.006 0 0012.522-1.999c23.925-8.274 38.634-41.282 48.88-64.438 3.267-7.383 7.628-18.05 17.722-28.005a66.612 66.612 0 0112.712-9.712.47.47 0 00-.292-.866C139.65 24.186 128.208 33.02 121.547 40.2c-23.748 25.6-19.629 65.24-48.398 81.356a43.526 43.526 0 01-4.958 2.38z"/>
  <path fill="#020405" d="M41.472 286.576c14.76 0 25.704-10.944 25.704-25.776 0-14.832-10.944-25.776-25.704-25.776-14.832 0-25.776 10.944-25.776 25.776 0 14.832 10.944 25.776 25.776 25.776zm-.072-9.36c-8.64 0-14.832-6.984-14.832-16.416s6.192-16.488 14.832-16.488 14.904 7.056 14.904 16.488c0 9.432-6.264 16.416-14.904 16.416zM82.888 286h9.216l13.248-36.288H95.056l-7.56 23.472-7.632-23.472H69.64L82.888 286zm48.771-12.312c-.792 3.096-3.456 4.68-7.488 4.68-5.04 0-8.28-3.168-9-8.28h26.064c.072-.792.144-1.872.144-3.24 0-8.28-5.112-17.712-17.928-17.712-12.312 0-17.928 9.432-17.928 18.648 0 9.144 6.336 18.792 18.648 18.792 8.928 0 15.84-5.04 17.28-12.888h-9.792zm-8.208-17.208c4.824 0 7.632 3.24 7.92 7.272h-16.056c.864-5.04 3.6-7.272 8.136-7.272zM170.959 286h10.008v-27.936h10.368v-8.352h-10.368v-2.664c0-2.88 1.944-4.752 4.896-4.752h5.472v-8.352h-6.84c-8.136 0-13.536 4.968-13.536 12.528V286zm-2.808-27.936v-8.352h-2.448c-4.392 0-7.128 1.512-9.072 6.048v-6.048h-10.08V286h10.08v-17.64c0-6.192 2.232-10.296 7.2-10.296h4.32zM196.9 286h10.008v-52.056H196.9V286zm34.836.576c11.16 0 19.152-7.92 19.152-18.72 0-10.8-7.992-18.72-19.152-18.72s-19.152 7.92-19.152 18.72c0 10.8 7.992 18.72 19.152 18.72zm0-8.64c-5.4 0-9.072-4.104-9.072-10.08 0-6.048 3.672-10.152 9.072-10.152 5.4 0 9.072 4.104 9.072 10.152 0 5.976-3.672 10.08-9.072 10.08zM263.383 286h8.712l6.696-22.608L285.415 286h8.784l11.736-36.288h-10.008l-6.12 22.392-6.48-22.392h-9.144l-6.408 22.392-6.12-22.392h-10.08L263.383 286z"/>
</svg>
