<svg xmlns="http://www.w3.org/2000/svg" fill="none" viewBox="0 0 213 194">
  <path fill="#76C2FF" d="M96.871 194c53.501 0 96.871-43.428 96.871-97s-43.37-97-96.87-97C43.37 0 0 43.428 0 97s43.37 97 96.871 97z"/>
  <path fill="#211EBF" d="M20.595 141.821a.966.966 0 00-1.023 1.283.972.972 0 00.4.5c14.9 9.432 26.697 10.514 34.032 10.081 30.6-1.782 60.665-33.784 66.31-39.792 6.877-7.333 18.853-21.463 33.231-22.914 2.542-.254 8.339-.738 13.45 3.17a17.49 17.49 0 016.75 11.507c.102.764 1.106 9.662-4.97 14.525-3.814 3.106-11.022 4.875-14.582.356-2.085-2.647-2.453-6.797-1.042-10.756a1.271 1.271 0 00-.284-1.168 1.268 1.268 0 00-1.127-.411c-3.662 1.172-10.298 4.214-13.272 11.457-4.844 11.877 4.64 23.626 5.352 24.479 9.941 11.941 28.514 10.413 39.905 5.614 16.527-6.976 26.798-24.581 28.985-41.626.165-1.273 2.873-25.065-12.217-43.395-13.984-17.033-38.787-23.945-58.835-17.962-46.083 13.735-48.308 83.659-95.625 94.976a56.849 56.849 0 01-25.438.076z"/>
  <path fill="#211EBF" d="M14.289 131.115a.828.828 0 00-.242 1.579 42.09 42.09 0 0019.692 2.546c10.336-1.273 17.963-6.365 23.048-10.388 32.1-25.357 35.342-64.08 68.573-82.933 4.932-2.8 18.548-10.273 36.231-8.16a58.595 58.595 0 0129.443 12.806c.953.751 2.161-.407 1.614-1.527-2.898-5.958-8.619-16.116-16.31-21.96a51.57 51.57 0 00-30.727-10.68c-3.445 0-15.255.23-29.239 8.657-41.952 25.23-37.63 83.812-77.802 104.052a58.107 58.107 0 01-24.282 6.008z"/>
  <path fill="#211EBF" d="M12.191 123.936a.619.619 0 00-.368.684.626.626 0 00.585.513 37.006 37.006 0 0012.522-1.999c23.925-8.274 38.634-41.282 48.88-64.438 3.267-7.383 7.628-18.05 17.722-28.005a66.623 66.623 0 0112.712-9.712.47.47 0 00-.292-.866C83.65 24.186 72.208 33.02 65.547 40.2c-23.748 25.6-19.629 65.24-48.398 81.356a43.526 43.526 0 01-4.958 2.38z"/>
</svg>
