<svg xmlns="http://www.w3.org/2000/svg" fill="none" viewBox="0 0 210 87">
  <path fill="#5ED9C3" d="M65.33 43.975l.077.01c1.356.164 2.467-.25 2.843-1.06l12.042-25.988c.694-1.495-1.343-3.538-3.846-3.86l-.542-.07c-1.385-.178-2.522.245-2.89 1.078-3.944 8.868-7.8 17.55-11.578 26.045-.669 1.508 1.393 3.542 3.894 3.845zM86.662 6.12c0-2.696-2.253-4.882-5.032-4.882-2.777 0-5.03 2.186-5.03 4.882 0 2.696 2.253 4.88 5.03 4.88 2.78 0 5.032-2.184 5.032-4.88z"/>
  <path fill="#FBFBFB" d="M35.026 6.22c.96-.02 1.84.56 2.288 1.565l9.743 21.68c.89 1.978 3.045 1.704 4.054-.22 4.672-8.92 9.14-18.402 13.08-27.38C64.578.982 65.7.167 66.687.137c1.838-.052 3.33 1.937 2.63 3.585-5.527 13.026-12.276 26.05-17.803 39.076-.854 2.008-3.778 2.037-4.67.043l-9.449-21.075c-.49-1.098-1.6-1.584-2.64-1.462-.832.1-1.619.584-2.01 1.462l-9.55 21.283c-.88 1.963-3.744 1.975-4.64.02C12.535 29.972 6.297 16.823.281 3.722-.477 2.072.282.17 2.725.17c.938-.074 2.03.915 2.445 1.777 4.275 8.887 9.357 18.56 13.75 27.663.938 1.947 3.202 2.058 4.334-.446L32.752 7.71l2.275-1.49zm-2.274 1.49c.43-.976 1.348-1.47 2.275-1.49l-2.275 1.49zm105.732 29.232l-9.493-21.446c-.875-1.975-3.756-1.99-4.655-.026-4.167 9.13-6.065-.784-.052-13.882.9-1.955 3.766-1.943 4.648.021l9.543 21.277c.887 1.974 3.771 1.974 4.655 0l9.443-21.068c.896-1.995 3.822-1.968 4.676.044l16.58 39.067c.347.82.205 1.68-.253 2.33a2.545 2.545 0 01-2.168 1.068c-.019 0-.04 0-.057-.003a2.533 2.533 0 01-2.261-1.495l-11.817-26.926c-.872-1.987-3.772-2-4.662-.02l-9.468 21.072c-.888 1.976-3.781 1.97-4.659-.013z"/>
  <path fill="#FBFBFB" d="M110.236 37.052l-9.494-21.446c-.874-1.975-3.755-1.99-4.654-.026-4.167 9.129-8.337 18.256-12.504 27.383a2.542 2.542 0 01-2.257 1.466l-.954.022c-1.864.046-3.141-1.811-2.383-3.463l18.046-39.29c.9-1.955 3.765-1.942 4.647.021l9.544 21.277c.886 1.974 3.771 1.974 4.655-.001l9.443-21.067c.896-1.995 3.822-1.968 4.675.044 5.526 13.022 3.964 23.016.025 14.042-.872-1.988-3.772-2-4.662-.02l-9.47 21.071c-.887 1.976-3.78 1.97-4.657-.013zm75.667-20.891l-3.319 7.522c-.669 1.515.477 3.2 2.177 3.2h6.675c1.703 0 2.848-1.694 2.172-3.21l-3.357-7.52c-.825-1.85-3.531-1.844-4.348.008zm5.841-14.14c5.527 12.241 16.197 35.612 17.923 39.689.352.83-.736 2.306-1.859 2.545-1.576.334-3.895.382-4.413-.87-1.466-3.547-2.093-4.786-4.268-8.736-.589-1.069-2.094-1.946-3.345-1.946h-13.679c-2.151 0-4.097 1.322-5.017 3.083C174.5 40.74 174.803 40.67 174 42.5c-.757 1.646-1.644.539-2.373-1.552a2.217 2.217 0 01-.067-.209L168 28s-1.201-1.999 1.5 2.5c.601 1 1.148 1 1.5 1 1 0 1.664-1.495 1.664-1.495l12.711-27.986c1.22-2.692 5.153-2.69 6.369.002z"/>
  <path fill="#5ED9C3" d="M72.385 60.8h4.68v21.24H90.24V86H72.385V60.8zm29.543 5.76c2.832 0 4.992.684 6.48 2.052 1.512 1.344 2.268 3.384 2.268 6.12V86h-4.248v-2.34c-.552.84-1.344 1.488-2.376 1.944-1.008.432-2.232.648-3.672.648s-2.7-.24-3.78-.72c-1.08-.504-1.92-1.188-2.52-2.052-.576-.888-.864-1.884-.864-2.988 0-1.728.636-3.108 1.908-4.14 1.296-1.056 3.324-1.584 6.084-1.584h4.968v-.288c0-1.344-.408-2.376-1.224-3.096-.792-.72-1.98-1.08-3.564-1.08-1.08 0-2.148.168-3.204.504-1.032.336-1.908.804-2.628 1.404l-1.764-3.276c1.008-.768 2.22-1.356 3.636-1.764a16.174 16.174 0 014.5-.612zm-.612 16.416c1.128 0 2.124-.252 2.988-.756a4.278 4.278 0 001.872-2.232v-2.232h-4.644c-2.592 0-3.888.852-3.888 2.556 0 .816.324 1.464.972 1.944.648.48 1.548.72 2.7.72zm24.531-16.416c1.872 0 3.54.408 5.004 1.224a8.799 8.799 0 013.492 3.456c.84 1.488 1.26 3.204 1.26 5.148 0 1.944-.42 3.672-1.26 5.184a8.799 8.799 0 01-3.492 3.456c-1.464.816-3.132 1.224-5.004 1.224-1.32 0-2.532-.228-3.636-.684a6.989 6.989 0 01-2.736-2.052V86h-4.284V59.288h4.5v9.828a7.596 7.596 0 012.7-1.908c1.056-.432 2.208-.648 3.456-.648zm-.504 15.84c1.656 0 3.012-.552 4.068-1.656 1.08-1.104 1.62-2.556 1.62-4.356 0-1.8-.54-3.252-1.62-4.356-1.056-1.104-2.412-1.656-4.068-1.656-1.08 0-2.052.252-2.916.756-.864.48-1.548 1.176-2.052 2.088-.504.912-.756 1.968-.756 3.168 0 1.2.252 2.256.756 3.168a5.462 5.462 0 002.052 2.124c.864.48 1.836.72 2.916.72z"/>
</svg>
