<svg xmlns="http://www.w3.org/2000/svg" viewBox="0 0 517.95 506.41">
  <path d="M107.28 413a20.3 20.3 0 01-8.47 8q-5.73 3.06-14.2 3.05H74.16v24.85H57.3v-69.21h27.31a31 31 0 0114 2.86 19.67 19.67 0 018.58 7.89 23 23 0 012.86 11.56 22.26 22.26 0 01-2.77 11zm-16.76-4.58a9.85 9.85 0 000-12.82q-2.35-2.26-7.19-2.27h-9.17v17.36h9.17q4.83-.04 7.19-2.31zM171.37 425.44h-38.16c.27 3.41 1.37 6 3.31 7.83a10.06 10.06 0 007.14 2.71q6.32 0 8.78-5.32h17.94a24.56 24.56 0 01-5 9.76 24.87 24.87 0 01-9 6.8 28.86 28.86 0 01-12.12 2.47 29.54 29.54 0 01-14.4-3.45 24.56 24.56 0 01-9.86-9.86 33.61 33.61 0 010-30 24.26 24.26 0 019.81-9.86 32 32 0 0128.69-.1 24 24 0 019.71 9.56 29.06 29.06 0 013.5 14.5 44.81 44.81 0 01-.34 4.96zm-17-9.37a8.68 8.68 0 00-3-6.9 10.87 10.87 0 00-7.39-2.57 10.7 10.7 0 00-7.15 2.47 10.94 10.94 0 00-3.6 7zM230.47 399.56q5.76 6.26 5.77 17.2v32.14h-16.76V419c0-3.68-1-6.54-2.86-8.58a11.19 11.19 0 00-15.38 0q-2.87 3.06-2.86 8.58v29.9h-16.86v-55h16.86v7.29a17.88 17.88 0 016.9-5.77 22 22 0 019.76-2.12q9.66-.01 15.43 6.26zM280.06 395.46a17.32 17.32 0 016.75 6.22v-7.79h16.86v54.91a31 31 0 01-3 13.75 23 23 0 01-9.17 9.81q-6.17 3.64-15.33 3.64-12.23 0-19.82-5.77a21.74 21.74 0 01-8.67-15.62h16.66a8 8 0 003.74 5 13.75 13.75 0 007.3 1.82 11.45 11.45 0 008.33-3q3.1-3 3.1-9.61V441a18.62 18.62 0 01-6.8 6.26 20.54 20.54 0 01-10.15 2.42 22.58 22.58 0 01-12.33-3.5 24.09 24.09 0 01-8.72-10 36.23 36.23 0 010-29.82 23.87 23.87 0 018.72-9.86 22.79 22.79 0 0112.33-3.45 21.25 21.25 0 0110.2 2.41zm3.25 16a11.84 11.84 0 00-17.05-.05q-3.51 3.6-3.5 9.9t3.5 10a11.73 11.73 0 0017.05.05q3.51-3.64 3.5-10t-3.5-9.92zM395.85 393.89L381 448.9h-18.67l-8.67-35.69-9 35.69h-18.51l-15-55H328l7.79 39.33 9.27-39.33h17.84l9.39 39.1 7.71-39.11zM404.48 385.56a8.5 8.5 0 01-2.81-6.46 8.59 8.59 0 012.81-6.56 10.22 10.22 0 017.25-2.61 10.07 10.07 0 017.14 2.61 8.56 8.56 0 012.81 6.56 8.46 8.46 0 01-2.81 6.46 10.07 10.07 0 01-7.14 2.61 10.22 10.22 0 01-7.25-2.61zm15.63 8.33v55h-16.86v-55zM482.26 399.56q5.78 6.26 5.77 17.2v32.14h-16.76V419q0-5.52-2.86-8.58a11.19 11.19 0 00-15.38 0c-1.9 2-2.86 4.9-2.86 8.58v29.9h-16.85v-55h16.85v7.29a17.84 17.84 0 016.91-5.77 22 22 0 019.76-2.12q9.66-.01 15.42 6.26z"/>
  <path fill="#ffa300" d="M323.45 318l-34.92-32.49-25.48-25.48-11.8 57.97h72.2z"/>
  <circle cx="272.67" cy="154.08" r="134.85" fill="#fbb03b"/>
  <path d="M337.22 140.31a80.63 80.63 0 00-84-74.33c-43.3 1.89-77 38.46-77 81.8V318h80.61a80.61 80.61 0 0080.62-80.62V172.8h34.69z"/>
  <path fill="#fff" d="M320.88 163.61l-.08 90.06-60-67.16-17.17-19.22a44.26 44.26 0 0117.25-70.84 44.26 44.26 0 0160 41.4z"/>
  <path d="M288.14 136.3a13 13 0 1010.17 10.17 13 13 0 00-10.17-10.17z"/>
</svg>
