<svg xmlns="http://www.w3.org/2000/svg" fill="none" viewBox="0 0 87 45">
  <path fill="#5ED9C3" d="M65.33 43.839l.077.01c1.356.163 2.467-.252 2.843-1.061L80.292 16.8c.694-1.495-1.343-3.538-3.846-3.86l-.542-.07c-1.385-.178-2.522.246-2.891 1.078L61.436 39.993c-.669 1.508 1.393 3.542 3.894 3.846zM86.662 5.983c0-2.696-2.253-4.881-5.032-4.881-2.777 0-5.03 2.185-5.03 4.881s2.253 4.88 5.03 4.88c2.78 0 5.032-2.184 5.032-4.88z"/>
  <path fill="#FBFBFB" d="M35.026 6.082c.96-.02 1.839.562 2.288 1.566l9.743 21.68c.89 1.978 3.045 1.705 4.054-.22 4.672-8.92 9.14-18.402 13.08-27.38C64.578.847 65.7.03 66.687.002c1.838-.052 3.33 1.937 2.63 3.584-5.527 13.026-12.276 26.05-17.803 39.076-.854 2.009-3.778 2.037-4.67.044l-9.449-21.076c-.491-1.097-1.6-1.584-2.64-1.461-.832.098-1.619.584-2.01 1.461l-9.55 21.283c-.88 1.964-3.744 1.975-4.641.021C12.536 29.835 6.298 16.686.282 3.585-.477 1.936.282.032 2.725.032c.938-.074 2.03.915 2.445 1.777 4.275 8.887 9.357 18.559 13.75 27.663.938 1.947 3.202 2.059 4.334-.445l9.498-21.455 2.274-1.49zm-2.274 1.49c.43-.975 1.348-1.47 2.274-1.49z"/>
</svg>
