<?xml version="1.0" standalone="no"?>
<!DOCTYPE svg PUBLIC "-//W3C//DTD SVG 20010904//EN"
 "http://www.w3.org/TR/2001/REC-SVG-20010904/DTD/svg10.dtd">
<svg version="1.0" xmlns="http://www.w3.org/2000/svg"
 width="700.000000pt" height="700.000000pt" viewBox="0 0 700.000000 700.000000"
 preserveAspectRatio="xMidYMid meet">
<metadata>
Created by potrace 1.14, written by Peter Selinger 2001-2017
</metadata>
<g transform="translate(0.000000,700.000000) scale(0.100000,-0.100000)"
fill="#000000" stroke="none">
<path d="M138 5297 c-54 -13 -115 -70 -129 -119 -19 -73 -8 -113 84 -308 24
-52 54 -117 67 -145 12 -27 37 -81 55 -120 18 -38 76 -162 128 -275 52 -113
110 -239 130 -280 19 -41 51 -110 71 -152 20 -43 52 -113 72 -155 20 -43 49
-105 64 -138 15 -33 63 -134 105 -225 43 -91 91 -194 107 -230 17 -36 49 -103
70 -150 22 -47 66 -141 98 -210 32 -69 75 -161 95 -205 69 -148 107 -229 227
-490 66 -143 132 -273 146 -289 82 -88 234 -85 306 6 25 31 76 140 273 583 78
175 104 233 149 333 15 31 34 75 44 97 10 22 29 65 43 95 13 30 55 123 92 205
37 83 83 183 101 223 19 41 34 75 34 77 0 2 18 43 41 91 58 126 101 163 194
169 99 6 169 -38 212 -135 14 -30 36 -80 50 -110 28 -61 87 -193 140 -315 20
-44 55 -122 79 -174 24 -51 44 -95 44 -98 0 -2 13 -32 29 -66 30 -65 243 -539
351 -782 34 -77 73 -155 87 -173 68 -90 216 -100 300 -19 19 18 49 69 73 126
23 53 51 116 62 141 11 25 35 79 53 120 56 130 322 711 395 866 22 45 55 114
73 155 33 70 59 125 162 344 128 270 169 358 315 675 63 138 86 188 123 270
13 30 34 76 46 103 119 264 184 424 189 463 6 56 -13 108 -56 156 -71 79 -157
97 -246 54 -30 -15 -68 -42 -83 -60 -16 -18 -58 -97 -93 -177 -34 -79 -75
-171 -90 -204 -16 -33 -73 -159 -128 -280 -219 -479 -363 -776 -773 -1585 -62
-123 -187 -172 -274 -106 -31 24 -46 50 -105 181 -140 309 -355 789 -405 900
-35 77 -79 175 -99 218 -20 43 -36 80 -36 82 0 2 -16 39 -36 82 -20 43 -53
116 -74 163 -108 245 -125 271 -197 305 -52 25 -134 15 -187 -22 -39 -27 -80
-91 -116 -183 -7 -19 -28 -66 -45 -105 -18 -38 -65 -144 -105 -235 -40 -91
-83 -187 -95 -215 -12 -27 -47 -106 -78 -175 -30 -69 -66 -150 -80 -180 -14
-30 -84 -188 -155 -350 -72 -162 -142 -320 -156 -352 -71 -160 -203 -210 -303
-115 -19 17 -61 88 -99 166 -85 174 -191 387 -621 1246 -193 385 -373 748
-401 806 -89 185 -173 240 -314 206z"/>
<path d="M6435 5199 c-271 -96 -358 -418 -168 -628 157 -174 432 -178 594 -9
70 73 100 143 107 243 10 166 -73 303 -228 377 -88 42 -215 49 -305 17z"/>
<path d="M5980 4268 c-56 -16 -91 -48 -117 -107 -47 -105 -102 -228 -128 -285
-8 -17 -69 -155 -135 -306 -128 -290 -133 -300 -175 -395 -15 -33 -45 -100
-67 -150 -22 -49 -48 -108 -58 -130 -164 -361 -362 -817 -364 -840 -4 -51 16
-97 69 -149 83 -85 193 -126 320 -123 59 2 79 7 113 29 23 16 48 44 58 65 10
21 41 89 71 152 29 62 53 115 53 116 0 2 29 65 65 140 36 76 65 138 65 140 0
1 22 49 49 106 26 57 58 124 69 149 26 56 90 195 130 280 16 36 41 90 55 120
14 30 60 129 102 220 42 91 88 190 102 220 14 30 55 118 91 195 35 77 77 168
93 203 16 34 29 75 29 91 0 102 -128 218 -278 252 -67 15 -171 18 -212 7z"/>
</g>
</svg>
